<svg width="38" height="45" viewBox="0 0 38 45" fill="none" xmlns="http://www.w3.org/2000/svg">
<g clip-path="url(#clip0_4043_1123)">
<path d="M37.1494 6.04849L31.4885 1.75617C31.1598 1.50599 30.7281 1.46675 30.3553 1.64825C29.9825 1.82975 29.7568 2.20257 29.7568 2.61464V4.12553H25.4154C24.2087 1.68259 21.6922 0 18.793 0C15.8938 0 13.3773 1.68259 12.1706 4.12553H7.82919V2.61464C7.82919 2.20257 7.59863 1.82975 7.23072 1.64825C6.86281 1.46675 6.42622 1.50599 6.10245 1.75617L0.426779 6.04849C0.156976 6.25452 0 6.56847 0 6.90695C0 7.24543 0.156976 7.55939 0.426779 7.76542L6.08774 12.0626C6.79413 12.6022 7.81938 12.097 7.81938 11.2042V9.69328H11.7732C11.8517 9.93856 11.9449 10.1789 12.0528 10.4095L2.10937 18.6409C1.60901 19.053 1.4275 19.7152 1.64825 20.3284C1.869 20.9416 2.42823 21.3341 3.08066 21.3341H4.05686V23.6544C4.05686 24.3804 4.65042 24.9739 5.37644 24.9739H5.66586V35.5551H5.37644C4.65042 35.5551 4.05686 36.1487 4.05686 36.8747V39.195H2.78142C2.10937 39.195 1.55995 39.7444 1.55995 40.4165V42.8055C1.55995 43.4775 2.10937 44.0269 2.78142 44.0269H9.37443C9.73253 44.0269 10.017 43.7375 10.017 43.3843C10.017 43.0311 9.72762 42.7417 9.37443 42.7417H2.8452V40.4851H34.731V42.7417H12.3766C12.0185 42.7417 11.734 43.0311 11.734 43.3843C11.734 43.7375 12.0234 44.0269 12.3766 44.0269H34.7948C35.4668 44.0269 36.0162 43.4775 36.0162 42.8055V40.4165C36.0162 39.7444 35.4668 39.195 34.7948 39.195H33.5193V36.8747C33.5193 36.1487 32.9258 35.5551 32.1998 35.5551H31.9103V29.8157C31.9103 29.4576 31.6209 29.1731 31.2677 29.1731C30.9145 29.1731 30.6251 29.4625 30.6251 29.8157V35.5551H27.3482V24.9739H30.6251V26.8037C30.6251 27.1618 30.9145 27.4463 31.2677 27.4463C31.6209 27.4463 31.9103 27.1569 31.9103 26.8037V24.9739H32.1998C32.9258 24.9739 33.5193 24.3804 33.5193 23.6544V21.3341H34.4955C35.1431 21.3341 35.7072 20.9367 35.9279 20.3284C36.1487 19.7152 35.9672 19.053 35.4668 18.6409L25.5234 10.4095C25.6264 10.1789 25.7196 9.93856 25.803 9.69328H29.7568V11.2042C29.7568 12.097 30.7772 12.6022 31.4885 12.0626L37.1543 7.76542C37.4241 7.55939 37.5811 7.24543 37.5811 6.90695C37.5811 6.56847 37.4241 6.25452 37.1543 6.04849H37.1494ZM11.474 8.40313H7.59373C7.00997 8.40313 6.53414 8.87897 6.53414 9.46272V10.7774L1.4275 6.90695L6.52923 3.03651V4.35118C6.52923 4.93494 7.00507 5.41568 7.58882 5.41568H11.6702C11.4053 6.37225 11.3268 7.36807 11.474 8.40313ZM18.7881 1.29015C22.1484 1.29015 24.8856 4.02252 24.8856 7.38769C24.8856 10.7529 22.1533 13.4852 18.7881 13.4852C15.4229 13.4852 12.6906 10.7529 12.6906 7.38769C12.6906 4.02252 15.4229 1.29015 18.7881 1.29015ZM32.1998 36.8453C32.1998 36.8453 32.2292 36.86 32.2292 36.8747V39.195H5.347V36.8747C5.347 36.8747 5.36172 36.8453 5.37644 36.8453H32.2047H32.1998ZM6.95601 35.5551V24.9739H10.2329V35.5551H6.95601ZM11.5181 35.5551V24.9739H15.8595V35.5551H11.5181ZM17.1497 35.5551V24.9739H20.4265V35.5551H17.1497ZM21.7167 35.5551V24.9739H26.0581V35.5551H21.7167ZM32.2292 23.6544C32.2292 23.6544 32.2145 23.6838 32.1998 23.6838H5.37644C5.37644 23.6838 5.347 23.6691 5.347 23.6544V21.3341H32.2341V23.6544H32.2292ZM34.6476 19.6367C34.8144 19.7741 34.7212 20.0488 34.5004 20.0488H3.08066C2.9384 20.0488 2.88444 19.9507 2.86482 19.8967C2.8452 19.8379 2.82557 19.7299 2.93349 19.6417L12.7004 11.5574C14.0347 13.5 16.2667 14.7754 18.793 14.7754C21.3193 14.7754 23.5513 13.5 24.8856 11.5574L34.6525 19.6417L34.6476 19.6367ZM31.047 10.7774V9.46272C31.047 8.87897 30.5711 8.40313 29.9874 8.40313H26.1071C26.2494 7.36807 26.1758 6.36735 25.9109 5.41568H29.9923C30.576 5.41568 31.0519 4.93985 31.0519 4.35118V3.03651L36.1536 6.90695L31.0519 10.7774H31.047Z" fill="white"/>
<path d="M18.1455 10.8264V11.3219C18.1455 11.68 18.435 11.9645 18.7882 11.9645C19.1414 11.9645 19.4308 11.6751 19.4308 11.3219V10.8657C20.3775 10.6842 21.1183 10.0121 21.2752 9.13401C21.4126 8.35894 21.0594 7.34841 19.6466 6.82842C18.9255 6.56353 18.2535 6.2741 18.0621 6.1858C17.9248 6.07788 17.861 5.91109 17.8855 5.7345C17.9003 5.61676 17.9837 5.33224 18.3957 5.20961C19.2493 4.94962 20.0342 5.57261 20.0538 5.59224C20.3285 5.81789 20.7307 5.78355 20.9613 5.50884C21.1919 5.23413 21.1575 4.82698 20.8828 4.60132C20.8485 4.57189 20.2696 4.09606 19.4308 3.91946V3.44853C19.4308 3.09043 19.1414 2.80591 18.7882 2.80591C18.435 2.80591 18.1455 3.09533 18.1455 3.44853V3.93908C17.2625 4.16473 16.718 4.81226 16.615 5.54809C16.5169 6.23976 16.8161 6.90691 17.3999 7.28954C17.4293 7.30916 17.4588 7.32388 17.4882 7.3386C17.5225 7.35331 18.3123 7.70651 19.2051 8.03518C19.4749 8.13329 20.0979 8.41781 20.0096 8.90345C19.9459 9.25665 19.524 9.62456 18.9255 9.62456C18.327 9.62456 17.758 9.38419 17.395 8.98194C17.1546 8.71704 16.7475 8.69742 16.4826 8.93779C16.2177 9.17816 16.198 9.58532 16.4384 9.85022C16.875 10.331 17.4833 10.6743 18.1455 10.8264Z" fill="white"/>
</g>
<defs>
<clipPath id="clip0_4043_1123">
<rect width="37.5762" height="44.0269" fill="white"/>
</clipPath>
</defs>
</svg>
