<svg width="69" height="47" viewBox="0 0 69 47" fill="none" xmlns="http://www.w3.org/2000/svg">
<path d="M2.34434 0H65.7583C66.38 0 66.9763 0.246991 67.416 0.686639C67.8556 1.12629 68.1026 1.72258 68.1026 2.34433V44.5424C68.1026 45.1641 67.8556 45.7604 67.416 46.2001C66.9763 46.6397 66.38 46.8867 65.7583 46.8867H2.34434C1.72258 46.8867 1.12629 46.6397 0.68664 46.2001C0.246992 45.7604 0 45.1641 0 44.5424V2.34434C0 1.72258 0.246992 1.12629 0.68664 0.686641C1.12629 0.246992 1.72258 2.94725e-07 2.34434 0Z" fill="white"/>
<path d="M6.06415 40.6842V32.5988H8.55907C10.3725 32.5988 11.5391 33.2803 11.5391 34.6894C11.5391 35.4864 11.1695 36.0409 10.6497 36.3643C11.4005 36.7107 11.8394 37.3807 11.8394 38.2932C11.8394 39.9218 10.6497 40.6842 8.80163 40.6842L6.06415 40.6842ZM7.66967 35.96H8.85939C9.58706 35.96 9.89894 35.6019 9.89894 34.9435C9.89894 34.2389 9.33295 34.008 8.57061 34.008H7.66967V35.96ZM7.66967 39.275H8.66301C9.63327 39.275 10.1992 39.0324 10.1992 38.2701C10.1992 37.5193 9.71414 37.2075 8.80163 37.2075H7.66967V39.275ZM14.953 40.8228C13.3705 40.8228 12.5735 40.0489 12.5735 39.0093C12.5735 37.8658 13.5091 37.1959 14.8952 37.1843C15.2396 37.1906 15.5832 37.2215 15.9232 37.2768V36.9995C15.9232 36.295 15.5189 35.96 14.745 35.96C14.2237 35.9534 13.706 36.0476 13.2203 36.2372L12.9316 34.9898C13.4283 34.7818 14.2253 34.6432 14.9298 34.6432C16.6278 34.6432 17.471 35.5442 17.471 37.1035V40.3145C16.9974 40.5571 16.108 40.8228 14.953 40.8228ZM15.9232 39.5176V38.2816C15.6539 38.2218 15.379 38.1908 15.1031 38.1892C14.5718 38.1892 14.156 38.3972 14.156 38.94C14.156 39.4252 14.5025 39.6793 15.1146 39.6793C15.393 39.6884 15.6697 39.633 15.9232 39.5176ZM18.5932 40.6842V35.1514C19.4232 34.818 20.3091 34.6456 21.2036 34.6432C22.89 34.6432 23.8602 35.4748 23.8602 37.0111V40.6842H22.2662V37.1266C22.2662 36.3296 21.8966 35.96 21.192 35.96C20.8422 35.9551 20.4954 36.026 20.1756 36.1679V40.6842L18.5932 40.6842ZM29.4306 34.9898L29.1303 36.2487C28.7177 36.07 28.2746 35.9719 27.8251 35.96C26.8895 35.96 26.3813 36.6184 26.3813 37.7041C26.3813 38.8938 26.9126 39.506 27.906 39.506C28.3493 39.4939 28.7855 39.3917 29.1881 39.2057L29.4422 40.4878C28.9192 40.7206 28.3512 40.8349 27.7789 40.8228C25.8615 40.8228 24.7526 39.6331 24.7526 37.7503C24.7526 35.8791 25.85 34.6432 27.6865 34.6432C28.2853 34.6403 28.8785 34.7581 29.4306 34.9898ZM32.8741 40.8228C31.0953 40.8228 29.9865 39.5868 29.9865 37.7272C29.9865 35.8791 31.0953 34.6432 32.8741 34.6432C34.6645 34.6432 35.7502 35.8791 35.7502 37.7272C35.7502 39.5868 34.6645 40.8228 32.8741 40.8228ZM32.8741 39.506C33.6942 39.506 34.1216 38.8245 34.1216 37.7272C34.1216 36.6414 33.6942 35.96 32.8741 35.96C32.0656 35.96 31.6151 36.6414 31.6151 37.7272C31.6151 38.8245 32.0656 39.506 32.8741 39.506ZM36.6726 40.6842V35.1514C37.5027 34.818 38.3886 34.6456 39.2831 34.6432C40.9694 34.6432 41.9397 35.4748 41.9397 37.0111V40.6842H40.3457V37.1266C40.3457 36.3296 39.9761 35.96 39.2715 35.96C38.9216 35.9551 38.5749 36.026 38.255 36.1679V40.6842L36.6726 40.6842ZM45.5345 40.8228C44.16 40.8228 43.4554 40.072 43.4554 38.5473V36.0524H42.6699V34.7818H43.4554V33.4997L45.0493 33.4189V34.7818H46.3314V36.0524H45.0493V38.5242C45.0493 39.1942 45.3266 39.506 45.8463 39.506C46.0523 39.5055 46.2576 39.4823 46.4585 39.4367L46.5394 40.7188C46.2095 40.7919 45.8723 40.8268 45.5345 40.8228ZM49.5578 40.8228C47.9753 40.8228 47.1783 40.0489 47.1783 39.0093C47.1783 37.8658 48.114 37.1959 49.5 37.1843C49.8444 37.1906 50.188 37.2215 50.528 37.2768V36.9995C50.528 36.295 50.1237 35.96 49.3499 35.96C48.8285 35.9534 48.3108 36.0476 47.8252 36.2372L47.5364 34.9898C48.0331 34.7818 48.8301 34.6432 49.5347 34.6432C51.2326 34.6432 52.0758 35.5442 52.0758 37.1035V40.3145C51.6022 40.5571 50.7128 40.8228 49.5578 40.8228ZM50.528 39.5176V38.2816C50.2587 38.2218 49.9838 38.1908 49.7079 38.1892C49.1766 38.1892 48.7608 38.3972 48.7608 38.94C48.7608 39.4252 49.1073 39.6793 49.7195 39.6793C49.9978 39.6884 50.2746 39.633 50.528 39.5176ZM57.5293 34.9898L57.229 36.2487C56.8164 36.07 56.3733 35.9719 55.9238 35.96C54.9882 35.96 54.48 36.6184 54.48 37.7041C54.48 38.8938 55.0113 39.506 56.0047 39.506C56.448 39.4939 56.8842 39.3917 57.2868 39.2057L57.5409 40.4878C57.0179 40.7205 56.45 40.8349 55.8776 40.8228C53.9602 40.8228 52.8514 39.6331 52.8514 37.7503C52.8514 35.8791 53.9487 34.6432 55.7852 34.6432C56.384 34.6403 56.9772 34.7581 57.5293 34.9898ZM61.0339 40.8228C59.6594 40.8228 58.9548 40.072 58.9548 38.5473V36.0524H58.1693V34.7818H58.9548V33.4997L60.5487 33.4189V34.7818H61.8309V36.0524H60.5487V38.5242C60.5487 39.1942 60.826 39.506 61.3457 39.506C61.5517 39.5055 61.757 39.4823 61.9579 39.4367L62.0388 40.7188C61.7089 40.7919 61.3717 40.8268 61.0339 40.8228Z" fill="#1E3764"/>
<path d="M17.1825 28.5561C25.617 28.5561 29.8342 22.933 34.0515 17.31H6.06415V28.5561H17.1825Z" fill="url(#paint0_linear_4043_1132)"/>
<path d="M50.9204 6.06406C42.4859 6.06406 38.2687 11.687 34.0515 17.31L62.0388 17.3101V6.06406H50.9204Z" fill="url(#paint1_linear_4043_1132)"/>
<defs>
<linearGradient id="paint0_linear_4043_1132" x1="13.775" y1="25.6079" x2="67.9234" y2="13.8694" gradientUnits="userSpaceOnUse">
<stop stop-color="#005AB9"/>
<stop offset="1" stop-color="#1E3764"/>
</linearGradient>
<linearGradient id="paint1_linear_4043_1132" x1="35.746" y1="18.2855" x2="57.485" y2="10.8686" gradientUnits="userSpaceOnUse">
<stop stop-color="#FBA900"/>
<stop offset="1" stop-color="#FFD800"/>
</linearGradient>
</defs>
</svg>
