<svg width="463" height="26" viewBox="0 0 463 26" fill="none" xmlns="http://www.w3.org/2000/svg">
<path d="M10.8369 3.94368C10.1418 4.74638 9.0296 5.37949 7.91743 5.28904C7.77841 4.20371 8.32291 3.05055 8.96009 2.3383C9.6552 1.51299 10.8716 0.925105 11.8564 0.879883C11.9722 2.01044 11.5204 3.11838 10.8369 3.94368ZM11.8448 5.50385C10.2345 5.4134 8.85583 6.39699 8.09121 6.39699C7.315 6.39699 6.14491 5.54907 4.87054 5.57168C3.21387 5.59429 1.67305 6.51004 0.827334 7.96846C-0.910435 10.8853 0.375514 15.204 2.05536 17.5782C2.8779 18.7539 3.86264 20.0428 5.16017 19.9976C6.38819 19.9523 6.87477 19.2175 8.35767 19.2175C9.85215 19.2175 10.2808 19.9975 11.5783 19.9749C12.9222 19.9523 13.7679 18.7992 14.5905 17.6234C15.5289 16.2893 15.9112 14.9892 15.9343 14.9214C15.9112 14.8988 13.3393 13.9378 13.3161 11.0436C13.2929 8.62418 15.3435 7.47101 15.4362 7.40318C14.2777 5.72996 12.4704 5.54907 11.8448 5.50385ZM21.1476 2.22524V19.8506H23.9512V13.8247H27.8323C31.3773 13.8247 33.8681 11.4506 33.8681 8.01368C33.8681 4.57679 31.4237 2.22524 27.9249 2.22524H21.1476ZM23.9512 4.53157H27.1835C29.6164 4.53157 31.0066 5.79779 31.0066 8.02498C31.0066 10.2522 29.6164 11.5297 27.1719 11.5297H23.9512V4.53157ZM38.9887 19.9862C40.7497 19.9862 42.3832 19.1157 43.1246 17.7364H43.1826V19.8506H45.7776V11.0775C45.7776 8.53373 43.6923 6.89443 40.4832 6.89443C37.5058 6.89443 35.3047 8.55634 35.2236 10.8401H37.7491C37.9577 9.75473 38.9887 9.04248 40.4021 9.04248C42.1167 9.04248 43.0783 9.82257 43.0783 11.2584V12.2306L39.5796 12.4341C36.3242 12.6263 34.5632 13.9265 34.5632 16.1876C34.5632 18.4713 36.3821 19.9862 38.9887 19.9862ZM39.7418 17.8947C38.2473 17.8947 37.2973 17.1938 37.2973 16.1198C37.2973 15.0118 38.2125 14.3674 39.9619 14.2656L43.0783 14.0734V15.0683C43.0783 16.7189 41.6417 17.8947 39.7418 17.8947ZM49.2416 24.6441C51.9757 24.6441 53.2616 23.6266 54.3854 20.5402L59.3091 7.06401H56.4591L53.1573 17.4764H53.0994L49.7977 7.06401H46.8666L51.6165 19.8958L51.3617 20.6759C50.933 21.9986 50.2379 22.5074 48.9983 22.5074C48.7782 22.5074 48.3495 22.4848 48.1757 22.4622V24.5763C48.3379 24.6215 49.033 24.6441 49.2416 24.6441Z" fill="white"/>
<path d="M96.3286 12.4871V18.9212H94.1052V3.00898H99.8861C101.294 3.00898 102.628 3.49327 103.666 4.39266C104.703 5.22286 105.222 6.46816 105.222 7.78265C105.222 9.09714 104.703 10.2733 103.666 11.1727C102.628 12.072 101.368 12.5563 99.8861 12.5563L96.3286 12.4871ZM96.3286 4.94613V10.4808H100.034C100.85 10.4808 101.665 10.2041 102.184 9.65061C103.369 8.61286 103.369 6.88327 102.258 5.84551L102.184 5.77633C101.591 5.22286 100.85 4.87694 100.034 4.94613H96.3286Z" fill="white"/>
<path d="M110.336 7.71326C111.967 7.71326 113.226 8.12837 114.19 8.95857C115.153 9.78877 115.598 10.8957 115.598 12.2794V18.921H113.523V17.399H113.449C112.559 18.6443 111.299 19.2669 109.817 19.2669C108.557 19.2669 107.446 18.921 106.556 18.2292C105.741 17.5373 105.222 16.5688 105.222 15.531C105.222 14.4241 105.667 13.5247 106.556 12.8329C107.446 12.141 108.706 11.8643 110.188 11.8643C111.522 11.8643 112.559 12.0718 113.375 12.5561V12.0718C113.375 11.38 113.078 10.6882 112.485 10.2731C111.892 9.78877 111.151 9.51204 110.336 9.51204C109.076 9.51204 108.113 9.99632 107.446 10.9649L105.519 9.85796C106.704 8.4051 108.261 7.71326 110.336 7.71326ZM107.52 15.6002C107.52 16.1537 107.816 16.638 108.261 16.9147C108.78 17.2606 109.373 17.4682 109.965 17.4682C110.855 17.4682 111.744 17.1222 112.411 16.4996C113.152 15.8769 113.523 15.1159 113.523 14.2857C112.856 13.8014 111.892 13.5247 110.632 13.5247C109.743 13.5247 109.002 13.7322 108.409 14.1473C107.816 14.4933 107.52 14.9775 107.52 15.6002Z" fill="white"/>
<path d="M127.604 8.05901L120.267 23.7637H118.044L120.786 18.2982L115.968 8.1282H118.34L121.823 15.9459H121.897L125.307 8.1282H127.604V8.05901Z" fill="white"/>
<path d="M87.5091 11.1031C87.5091 10.4805 87.435 9.85783 87.3609 9.23518H78.0967V12.7635H83.3588C83.1364 13.8705 82.4694 14.9082 81.4318 15.5309V17.8139H84.6187C86.4715 16.2227 87.5091 13.8705 87.5091 11.1031Z" fill="#4285F4"/>
<path d="M78.0967 20.0279C80.7648 20.0279 82.9882 19.1976 84.6187 17.8139L81.4318 15.5309C80.5425 16.0844 79.4307 16.4304 78.0967 16.4304C75.5768 16.4304 73.3534 14.8391 72.6123 12.6253H69.3513V14.9775C71.0559 18.0908 74.391 20.0279 78.0967 20.0279Z" fill="#34A853"/>
<path d="M72.6123 12.6253C72.1676 11.5183 72.1676 10.2731 72.6122 9.09694V6.7447H69.3513C67.9431 9.3045 67.9432 12.3485 69.3513 14.9775L72.6123 12.6253Z" fill="#FBBC04"/>
<path d="M78.0967 5.36103C79.5049 5.36103 80.8389 5.84532 81.8765 6.74471L84.6928 4.11573C82.9141 2.59369 80.5425 1.6943 78.1709 1.76349C74.4652 1.76349 71.056 3.70063 69.4255 6.81389L72.6865 9.16613C73.3535 6.95226 75.5769 5.36103 78.0967 5.36103Z" fill="#EA4335"/>
<path d="M148.56 2.64017C145.617 2.64885 142.799 3.72133 140.723 5.62213C138.647 7.52292 137.484 10.0967 137.489 12.7783C137.494 15.4599 138.666 18.0303 140.749 19.9249C142.831 21.8196 145.653 22.8838 148.596 22.8838C151.539 22.8838 154.361 21.8196 156.443 19.9249C158.526 18.0303 159.698 15.4599 159.703 12.7783C159.708 10.0967 158.545 7.52292 156.469 5.62213C154.393 3.72133 151.575 2.64885 148.632 2.64017H148.56Z" fill="#EB001B"/>
<path d="M162.291 2.64014C159.348 2.64882 156.53 3.72129 154.454 5.62209C152.378 7.52289 151.215 10.0966 151.22 12.7783C151.225 15.4599 152.397 18.0302 154.479 19.9249C156.562 21.8196 159.384 22.8837 162.327 22.8837C165.27 22.8837 168.092 21.8196 170.174 19.9249C172.257 18.0302 173.429 15.4599 173.434 12.7783C173.439 10.0966 172.275 7.52289 170.2 5.62209C168.124 3.72129 165.305 2.64882 162.363 2.64014H162.291Z" fill="#F79E1B"/>
<path d="M155.461 4.80226C154.138 5.74933 153.069 6.95794 152.333 8.33685C151.598 9.71576 151.215 11.2289 151.215 12.7621C151.215 14.2953 151.598 15.8085 152.333 17.1874C153.069 18.5663 154.138 19.7749 155.461 20.722C156.785 19.7749 157.854 18.5663 158.59 17.1874C159.325 15.8085 159.708 14.2953 159.708 12.7621C159.708 11.2289 159.325 9.71576 158.59 8.33685C157.854 6.95794 156.785 5.74933 155.461 4.80226Z" fill="#FF5F00"/>
<path d="M219.294 4.40039C215.275 4.40039 211.683 6.30006 211.683 9.80905C211.683 13.8336 218.053 14.1116 218.053 16.1337C218.053 16.9851 216.983 17.7472 215.155 17.7472C212.561 17.7472 210.623 16.6824 210.623 16.6824L209.793 20.2239C209.793 20.2239 212.027 21.1234 214.991 21.1234C219.386 21.1234 222.845 19.1307 222.845 15.5613C222.845 11.3083 216.447 11.0386 216.447 9.16222C216.447 8.49525 217.326 7.76472 219.148 7.76472C221.205 7.76472 222.882 8.53916 222.882 8.53916L223.694 5.11903C223.694 5.11903 221.869 4.40039 219.294 4.40039ZM182.517 4.65871L182.42 5.17483C182.42 5.17483 184.111 5.45691 185.634 6.02004C187.596 6.66532 187.735 7.04143 188.065 8.208L191.664 20.8568H196.489L203.922 4.65871H199.109L194.332 15.6718L192.384 6.33623C192.205 5.26782 191.3 4.65819 190.192 4.65819L182.517 4.65871ZM205.858 4.65871L202.082 20.8568H206.672L210.435 4.65871H205.858ZM231.459 4.65871C230.352 4.65871 229.766 5.19911 229.336 6.143L222.611 20.8568H227.424L228.355 18.4043H234.22L234.786 20.8568H239.033L235.328 4.65871H231.459ZM232.085 9.03513L233.512 15.1134H229.69L232.085 9.03513Z" fill="white"/>
<g clip-path="url(#clip0_6432_3539)">
<path d="M285.704 15.8505C283.962 22.6891 276.891 26.8485 269.908 25.1431C262.932 23.4378 258.681 16.5125 260.422 9.67729C262.164 2.83862 269.235 -1.3242 276.215 0.381137C283.198 2.08647 287.445 9.01179 285.704 15.8505Z" fill="#F7931A"/>
<path d="M278.809 10.9463C279.068 9.24785 277.748 8.33626 275.943 7.72622L276.527 5.42471L275.097 5.07463L274.527 7.31375C274.152 7.22363 273.766 7.13698 273.38 7.05033L273.954 4.79734L272.524 4.44727L271.936 6.74531C271.625 6.67599 271.32 6.60666 271.023 6.53387V6.52694L269.052 6.04515L268.673 7.53905C268.673 7.53905 269.735 7.77821 269.71 7.79208C270.29 7.93419 270.393 8.30853 270.375 8.60662L269.706 11.2374L268.772 14.908C268.701 15.0813 268.521 15.3378 268.117 15.2408C268.131 15.2616 267.077 14.9878 267.077 14.9878L266.365 16.5926L268.227 17.0466C268.574 17.1333 268.914 17.2199 269.246 17.3031L268.655 19.6289L270.085 19.979L270.673 17.6775C271.062 17.7815 271.441 17.8785 271.812 17.9686L271.228 20.2597L272.658 20.6098L273.249 18.2875C275.688 18.7381 277.521 18.5579 278.293 16.3985C278.916 14.6585 278.261 13.6568 276.98 13.0017C277.914 12.7902 278.618 12.1871 278.806 10.9463H278.809ZM275.543 15.4314C275.1 17.1714 272.11 16.2321 271.14 15.9929L271.926 12.9115C272.895 13.1472 276.003 13.6186 275.543 15.4314ZM275.985 10.9185C275.582 12.4991 273.093 11.6949 272.287 11.5008L272.998 8.70367C273.805 8.90124 276.406 9.26865 275.985 10.9185Z" fill="white"/>
</g>
<g clip-path="url(#clip1_6432_3539)">
<path d="M321.208 15.6486C322.836 8.78278 318.472 1.92479 311.462 0.330854C304.453 -1.26308 297.451 3.01062 295.823 9.87644C294.196 16.7423 298.559 23.6002 305.569 25.1942C312.579 26.7881 319.581 22.5144 321.208 15.6486Z" fill="#627EEA"/>
<path d="M308.922 3.19189V10.2663L315.026 12.9386L308.922 3.19189Z" fill="#C1CCF7"/>
<path d="M308.922 3.19189L302.813 12.9386L308.922 10.2663V3.19189Z" fill="white"/>
<path d="M308.922 17.5243V22.3318L315.03 14.0513L308.922 17.5243Z" fill="#C1CCF7"/>
<path d="M308.922 22.3323V17.5248L302.813 14.0552L308.922 22.3358V22.3323Z" fill="white"/>
<path d="M308.922 16.4081L315.026 12.935L308.922 10.2661V16.4081Z" fill="#8198EE"/>
<path d="M302.813 12.9389L308.922 16.412V10.27L302.813 12.9389Z" fill="#C1CCF7"/>
</g>
<g clip-path="url(#clip2_6432_3539)">
<path d="M344.054 25.5246C351.277 25.5246 357.084 19.8366 357.084 12.7623C357.084 5.68791 351.277 0 344.054 0C336.832 0 331.024 5.68791 331.024 12.7623C331.024 19.8366 336.832 25.5246 344.054 25.5246Z" fill="#2775CA"/>
<path d="M347.639 14.7828C347.639 12.9215 346.5 12.2837 344.217 12.0168C342.589 11.8054 342.264 11.379 342.264 10.6338C342.264 9.8886 342.809 9.41027 343.892 9.41027C344.868 9.41027 345.413 9.72916 345.682 10.5264C345.735 10.6858 345.898 10.7933 346.065 10.7933H346.935C347.151 10.7933 347.317 10.6338 347.317 10.4189V10.3669C347.101 9.19537 346.121 8.29418 344.876 8.18673V6.9112C344.876 6.69976 344.713 6.53686 344.44 6.48486H343.626C343.41 6.48486 343.244 6.64431 343.191 6.9112V8.13474C341.563 8.34617 340.53 9.41027 340.53 10.7413C340.53 12.4951 341.616 13.1884 343.895 13.4518C345.417 13.7187 345.905 14.0376 345.905 14.8868C345.905 15.736 345.145 16.3217 344.115 16.3217C342.703 16.3217 342.214 15.736 342.052 14.9387C341.998 14.7273 341.836 14.6199 341.669 14.6199H340.746C340.53 14.6199 340.364 14.7793 340.364 14.9942V15.0462C340.579 16.3772 341.45 17.3338 343.241 17.5973V18.8728C343.241 19.0842 343.403 19.2471 343.676 19.2991H344.49C344.706 19.2991 344.872 19.1397 344.925 18.8728V17.5973C346.553 17.3304 347.639 16.2143 347.639 14.7793V14.7828Z" fill="white"/>
<path d="M341.287 20.367C337.051 18.8766 334.882 14.2528 336.457 10.1558C337.27 7.92365 339.061 6.22178 341.287 5.42457C341.503 5.31712 341.613 5.15768 341.613 4.89079V4.14557C341.613 3.93414 341.503 3.77123 341.287 3.71924C341.234 3.71924 341.124 3.71924 341.071 3.77123C335.912 5.37258 333.088 10.7416 334.715 15.7952C335.692 18.7726 338.028 21.0603 341.068 22.0169C341.284 22.1244 341.503 22.0169 341.556 21.8055C341.609 21.7535 341.609 21.698 341.609 21.5941V20.8488C341.609 20.6894 341.446 20.4745 341.284 20.3705L341.287 20.367ZM347.041 3.7747C346.825 3.66725 346.606 3.7747 346.553 3.98613C346.5 4.03812 346.5 4.09358 346.5 4.19756V4.94278C346.5 5.15422 346.663 5.36912 346.825 5.47657C351.061 6.967 353.231 11.5908 351.656 15.6878C350.842 17.92 349.051 19.6218 346.825 20.419C346.609 20.5265 346.5 20.6859 346.5 20.9528V21.698C346.5 21.9095 346.609 22.0724 346.825 22.1244C346.878 22.1244 346.988 22.1244 347.041 22.0724C352.197 20.478 355.021 15.1055 353.393 10.0553C352.417 7.02592 350.028 4.73828 347.041 3.78163V3.7747Z" fill="white"/>
</g>
<g clip-path="url(#clip3_6432_3539)">
<path d="M379.101 0C386.295 0 392.131 5.71564 392.131 12.7623C392.131 19.8089 386.295 25.5246 379.101 25.5246C371.906 25.5246 366.071 19.8124 366.071 12.7623C366.071 5.71218 371.903 0 379.101 0Z" fill="#53AE94"/>
<path d="M380.711 11.0603V9.16082H385.145V6.2666H373.071V9.16082H377.505V11.0568C373.902 11.2197 371.191 11.9164 371.191 12.7552C371.191 13.594 373.902 14.2907 377.505 14.4536V20.5366H380.711V14.4536C384.306 14.2907 387.01 13.594 387.01 12.7552C387.01 11.9164 384.306 11.2197 380.711 11.0568M380.711 13.9406C380.619 13.9441 380.155 13.9718 379.122 13.9718C378.294 13.9718 377.713 13.9475 377.508 13.9371C374.327 13.802 371.949 13.2578 371.949 12.6096C371.949 11.9614 374.323 11.4173 377.508 11.2786V13.3999C377.717 13.4138 378.312 13.4484 379.136 13.4484C380.123 13.4484 380.622 13.4068 380.714 13.3999V11.2786C383.892 11.4173 386.263 11.9614 386.263 12.6096C386.263 13.2578 383.892 13.802 380.714 13.9406" fill="white"/>
</g>
<g clip-path="url(#clip4_6432_3539)">
<path fill-rule="evenodd" clip-rule="evenodd" d="M414.147 0C421.341 0.00346613 427.173 5.71564 427.177 12.7623C427.173 19.8089 421.341 25.5211 414.147 25.5246C406.952 25.5211 401.12 19.8089 401.117 12.7623C401.142 5.71911 406.956 0 414.147 0Z" fill="#345D9D"/>
<path fill-rule="evenodd" clip-rule="evenodd" d="M411.893 5.69141L409.847 13.1782L408.23 13.8021L407.646 15.9338L409.292 15.3896L408.202 19.8089L419.986 19.8332L420.701 17.0014H413.538L414.466 13.5942L416.405 12.79L416.96 10.7104L415.078 11.3343L416.564 5.77113L411.893 5.69141Z" fill="white"/>
</g>
<g clip-path="url(#clip5_6432_3539)">
<path fill-rule="evenodd" clip-rule="evenodd" d="M449.193 0C456.388 0.00346613 462.22 5.71564 462.223 12.7623C462.22 19.8089 456.388 25.5211 449.193 25.5246C441.999 25.5211 436.167 19.8089 436.163 12.7623C436.188 5.71911 442.002 0 449.193 0Z" fill="#FF0013"/>
<path d="M442.048 6.33252L448.17 21.2715L457.046 11.2094L454.077 8.47459L442.048 6.33252Z" stroke="white" stroke-width="1.12144" stroke-miterlimit="10"/>
<path d="M442.048 6.33252L449.547 12.2249L454.077 8.47459" stroke="white" stroke-width="1.12144" stroke-miterlimit="10"/>
<path d="M457.046 11.209L449.547 12.2246L448.17 21.2711" stroke="white" stroke-width="1.12144" stroke-miterlimit="10"/>
</g>
<defs>
<clipPath id="clip0_6432_3539">
<rect width="26.06" height="25.5246" fill="white" transform="translate(260.033)"/>
</clipPath>
<clipPath id="clip1_6432_3539">
<rect width="26.06" height="25.5246" fill="white" transform="translate(295.485)"/>
</clipPath>
<clipPath id="clip2_6432_3539">
<rect width="26.06" height="25.5246" fill="white" transform="translate(331.024)"/>
</clipPath>
<clipPath id="clip3_6432_3539">
<rect width="26.06" height="25.5246" fill="white" transform="translate(366.071)"/>
</clipPath>
<clipPath id="clip4_6432_3539">
<rect width="26.06" height="25.5246" fill="white" transform="translate(401.117)"/>
</clipPath>
<clipPath id="clip5_6432_3539">
<rect width="26.06" height="25.5246" fill="white" transform="translate(436.163)"/>
</clipPath>
</defs>
</svg>
