<svg width="61" height="41" viewBox="0 0 61 41" fill="none" xmlns="http://www.w3.org/2000/svg">
<path d="M56.6349 5.88536C56.7227 6.00488 56.8034 6.12933 56.8771 6.25809C56.682 5.43434 56.3819 4.63905 55.9844 3.89168C52.7095 -2.11701 43.6096 -0.318552 34.5315 6.48684C32.1395 8.27587 29.9911 10.3701 28.1412 12.7164C29.2704 13.3297 30.2932 14.1954 31.2804 14.9329C31.8846 15.3744 32.5253 15.7636 33.1956 16.0964C33.771 15.4299 34.3681 14.7712 34.9948 14.1244C43.0816 5.7848 53.3735 1.54105 56.6349 5.88536Z" fill="url(#paint0_linear_4043_1133)"/>
<path d="M57.2065 10.9789L57.3761 10.9296C57.6658 9.05028 57.549 7.42354 56.8771 6.25809C57.2347 7.80456 57.3463 9.39771 57.2065 10.9789Z" fill="url(#paint1_linear_4043_1133)"/>
<path d="M56.8559 6.22851C56.7814 6.09972 56.6999 5.9753 56.6115 5.85582L56.5742 5.81439C56.647 6.03921 56.7121 6.27387 56.7711 6.51051C56.8697 6.67959 56.9559 6.85556 57.0293 7.03702C56.9838 6.76096 56.9228 6.49276 56.8559 6.22851Z" fill="#E7E6E6"/>
<path d="M34.4408 6.85931C43.4894 0.00264816 52.5814 -1.84709 55.8821 4.1419C56.1701 4.67128 56.4063 5.22734 56.5873 5.8023L56.625 5.84373C56.7127 5.96325 56.7935 6.08767 56.8672 6.21643C56.6694 5.39517 56.3662 4.60306 55.9647 3.85989C52.6662 -2.12909 43.5721 -0.28132 34.5256 6.5773C31.2049 9.0703 28.3781 12.1614 26.1904 15.6919L26.2416 15.759C28.4114 12.3184 31.19 9.30249 34.4408 6.85931Z" fill="#E7E6E6"/>
<path d="M31.8553 12.7793C31.016 12.0714 30.1667 11.3989 29.3823 10.6377C27.8066 12.4992 26.0668 14.2151 24.1842 15.7649C16.0854 22.4697 7.35998 24.6803 4.69585 20.7206C4.65448 20.6595 4.61703 20.5944 4.57959 20.5234C4.07437 19.7741 3.69437 18.9476 3.45444 18.0761C3.01159 16.405 3.04093 14.6437 3.53916 12.9883C2.30563 15.4908 1.96277 17.9677 2.74112 20.0876C4.81408 25.6821 13.9947 26.6248 23.2521 22.1917C27.5655 20.127 31.1341 17.2617 33.4988 14.2169C32.951 13.7357 32.4208 13.2487 31.8553 12.7793Z" fill="url(#paint2_linear_4043_1133)"/>
<path d="M12.2316 4.4164C11.7982 4.45103 11.3703 4.5364 10.9567 4.6708L10.9823 4.73194L10.9074 4.69643C9.12019 5.97036 9.06305 5.97825 10.9823 4.73194C9.85537 5.43336 8.79746 6.24306 7.82755 7.14962C6.24744 8.68018 4.90631 10.4398 3.84911 12.3695C3.73876 12.5667 3.63965 12.7813 3.53916 12.9883C3.04093 14.6437 3.01159 16.405 3.45444 18.0761C3.6954 18.9507 4.07153 19.7721 4.57959 20.5234C3.88852 19.2956 3.51381 17.9198 3.49636 16.5107C3.52987 12.9867 6.51124 8.32689 8.53298 6.58561C9.67786 5.59962 10.7537 5.22296 11.7055 5.14013C11.8381 4.87049 12.0161 4.62569 12.2316 4.4164Z" fill="url(#paint3_linear_4043_1133)"/>
<path d="M19.9561 18.8829C23.7494 16.5165 27.1662 13.2765 28.2322 11.8961L28.847 11.2236C29.3279 10.7701 29.925 9.84319 30.3977 9.40738C31.6058 8.78028 33.8542 7.20664 36.2088 5.64086C37.2218 4.9684 38.2405 4.30779 38.8159 3.9962L41.5745 8.57322C39.8503 9.69334 35.4345 13.4224 33.8759 14.7515C33.3831 15.1696 33.9704 14.2506 33.5093 14.6845L30.2067 17.6425C27.9359 19.5671 25.4135 21.1727 22.7089 22.4147L19.9561 18.8829Z" fill="url(#paint4_linear_4043_1133)" style="mix-blend-mode:multiply"/>
<path d="M55.3657 2.98292C62.1049 15.7418 46.7703 21.7347 38.725 12.9277C35.3357 8.66623 34.9613 6.53843 32.8448 4.36726C23.8062 -4.42591 10.7752 1.03851 4.00261 12.0581C4.90116 10.9794 10.6275 4.44416 18.9509 5.48538C25.3846 6.28996 26.4388 14.5329 35.9564 19.3979C46.7565 24.9195 66.1759 17.4456 55.3657 2.98292Z" fill="url(#paint5_linear_4043_1133)"/>
<path d="M36.2441 19.0699C26.7247 14.205 25.6724 5.96007 19.2387 5.15549C11.2976 4.15372 5.72302 10.0697 4.44022 11.5428C4.44022 11.5428 4.44022 11.5586 4.44022 11.5665C6.12895 9.70688 11.4966 4.56784 18.9471 5.50059C25.3808 6.30517 26.435 14.5501 35.9526 19.4151C42.6404 22.8325 52.631 21.2648 56.7038 16.1435C52.4692 20.9907 42.7804 22.4086 36.2441 19.0699Z" fill="#1887B2"/>
<path d="M55.6967 3.40079C55.5864 3.24893 55.4799 3.09709 55.3656 2.94328C61.9648 15.4399 47.3931 21.4407 39.2312 13.4107C47.2964 21.6852 62.0141 15.8224 55.6967 3.40079Z" fill="white"/>
<path d="M10.5481 29.593C10.494 29.5708 10.4379 29.5537 10.3806 29.5418C9.92739 29.4255 8.80422 29.388 8.44164 29.6839L8.42195 29.7015C8.36142 29.7571 8.31252 29.824 8.27809 29.8989C7.22498 31.2976 6.25133 32.7544 5.36175 34.2627L2.64835 29.9086L2.63849 29.8869C2.60246 29.8116 2.55151 29.7446 2.48875 29.6898L2.47101 29.6738C2.15573 29.4116 1.21186 29.4195 0.697556 29.5082C0.575529 29.5212 0.455658 29.5496 0.340897 29.593C0.240994 29.6353 0.155544 29.7055 0.0949984 29.7956C0.0344527 29.8856 0.00143969 29.9913 0 30.0998V39.2914C0 39.4747 0.0847312 39.7962 0.652236 39.883C0.840962 39.9085 1.03128 39.9204 1.22171 39.9185C1.61581 39.9185 2.4454 39.9185 2.4454 39.2914V33.9965C2.62274 34.2765 2.9597 34.8248 3.33211 35.5129C3.84972 36.4713 4.19718 37.0979 4.37452 37.3924L4.47896 37.5895C4.572 37.7307 4.69023 37.8538 4.82773 37.9525C5.12436 38.1279 5.477 38.183 5.813 38.1063C5.89609 38.0838 5.97382 38.045 6.04158 37.9918C6.19229 37.8891 6.32537 37.7625 6.43566 37.6171L6.67213 37.201C6.78643 37.0025 7.0544 36.5055 7.4761 35.7103C7.89779 34.9148 8.21832 34.3356 8.43769 33.9729C8.43769 33.9729 8.43769 34.9687 8.43769 35.024V39.3033C8.43769 39.9304 9.26333 39.9304 9.65942 39.9304C10.0555 39.9304 10.8811 39.9304 10.8811 39.3033V30.1076C10.8819 29.9989 10.8508 29.8921 10.7916 29.8004C10.7324 29.7091 10.6478 29.6369 10.5481 29.593Z" fill="#2D9DD3"/>
<path d="M13.8081 29.6758H13.1519C12.6219 29.6758 12.1923 30.1058 12.1923 30.6361V31.3107C12.1923 31.841 12.6219 32.2711 13.1519 32.2711H13.8081C14.3381 32.2711 14.7678 31.841 14.7678 31.3107V30.6361C14.7678 30.1058 14.3381 29.6758 13.8081 29.6758Z" fill="#2D9DD3"/>
<path fill-rule="evenodd" clip-rule="evenodd" d="M12.2983 39.4175C12.2983 40.0444 13.1259 40.0444 13.52 40.0444C13.9181 40.0444 14.7437 40.0444 14.7437 39.4056V33.537C14.7437 32.9098 13.9161 32.9098 13.52 32.9098C13.1239 32.9098 12.2983 32.9098 12.2983 33.537V39.4175Z" fill="#2D9DD3"/>
<path d="M17.4215 40.0442C17.0274 40.0442 16.2037 40.0442 16.2037 39.4171V30.2157C16.2037 29.6274 16.8799 29.6067 17.3312 29.5929L22.462 29.5927C22.8305 29.5927 23.2621 29.8944 23.2621 30.7463C23.2621 31.5982 22.8305 31.8978 22.462 31.8978H18.6373V33.6453H21.9537C22.3221 33.6453 22.7537 33.9468 22.7537 34.7987C22.7537 35.6506 22.3221 35.9504 21.9537 35.9504H18.6373V39.4114C18.6373 40.0442 17.8156 40.0442 17.4215 40.0442Z" fill="#2D9DD3"/>
<path d="M25.7707 40.0443C25.3766 40.0443 24.5489 40.0443 24.5489 39.4172V30.2158C24.5489 29.5887 25.3746 29.5887 25.7707 29.5887C26.1667 29.5887 26.9924 29.5887 26.9924 30.2158V39.4093C26.9924 40.0443 26.1667 40.0443 25.7707 40.0443Z" fill="#2D9DD3"/>
<path d="M35.7848 40.0446C35.0183 40.0446 34.7994 39.8595 34.697 39.7215L31.1224 34.4363V39.4059C31.1224 40.0409 30.301 40.0409 29.9049 40.0409C29.5088 40.0409 28.689 40.0409 28.689 39.4059V30.236C28.6901 30.1213 28.7264 30.0096 28.793 29.916C28.8597 29.8225 28.9534 29.7517 29.0615 29.7135C29.3138 29.6088 30.5966 29.4809 30.9629 29.8455L31.0241 29.9204L34.5887 35.1936V30.2281C34.5887 29.5912 35.4418 29.5912 35.8065 29.5912C36.1711 29.5912 37.0224 29.5912 37.0224 30.2281V39.398C37.018 39.5265 36.972 39.6499 36.8912 39.7499C36.8105 39.85 36.6994 39.9207 36.5751 39.9522C36.3166 40.0162 36.0511 40.0474 35.7848 40.0446Z" fill="#2D9DD3"/>
<path d="M39.9089 40.0444C39.5147 40.0444 38.687 40.0444 38.687 39.4173V30.2159C38.687 29.5891 39.5128 29.5891 39.9089 29.5891C40.305 29.5891 41.1305 29.5891 41.1305 30.2159V39.4094C41.1286 40.0444 40.3028 40.0444 39.9089 40.0444Z" fill="#2D9DD3"/>
<path d="M46.6596 40.0446C46.2655 40.0446 45.4418 40.0446 45.4418 39.4175V32.0265H43.0772C42.4506 32.0265 42.4506 31.2042 42.4506 30.8099C42.4506 30.4154 42.4506 29.5912 43.0772 29.5912H50.2321C50.8606 29.5912 50.8606 30.4154 50.8606 30.8099C50.8606 31.2042 50.8606 32.0265 50.2321 32.0265H47.8674V39.4097C47.8753 40.0447 47.0536 40.0446 46.6596 40.0446Z" fill="#2D9DD3"/>
<path d="M55.2077 39.3759C55.2077 40.0445 56.128 40.0445 56.4314 40.0445C56.733 40.0445 57.653 40.0445 57.6571 39.3781V35.6313L61.0068 30.4034V30.2556C61.0041 30.1276 60.9599 30.0042 60.8811 29.9037C60.8023 29.8031 60.6928 29.7307 60.5695 29.6973C60.2658 29.5889 58.7961 29.4647 58.4019 29.9519L56.4314 33.0124L54.4786 29.9834L54.4648 29.9636C54.0944 29.4688 52.6342 29.5832 52.3109 29.6916C52.1839 29.722 52.0701 29.7941 51.9883 29.8961C51.9062 29.998 51.8604 30.1246 51.858 30.2556V30.4015L55.2077 35.6291V39.3759Z" fill="#2D9DD3"/>
<defs>
<linearGradient id="paint0_linear_4043_1133" x1="-4.03804" y1="19.6407" x2="62.4101" y2="20.2251" gradientUnits="userSpaceOnUse">
<stop offset="0.01" stop-color="#FFA220"/>
<stop offset="0.04" stop-color="#FFA61C"/>
<stop offset="0.34" stop-color="#FFC000"/>
<stop offset="0.61" stop-color="#FDC200"/>
<stop offset="0.74" stop-color="#F6C900"/>
<stop offset="0.75" stop-color="#F5CB00"/>
<stop offset="0.78" stop-color="#F3C200"/>
<stop offset="0.84" stop-color="#F0B100"/>
<stop offset="0.89" stop-color="#EFAB00"/>
<stop offset="1" stop-color="#B74600"/>
</linearGradient>
<linearGradient id="paint1_linear_4043_1133" x1="-2887.88" y1="17.2983" x2="22.8673" y2="355.738" gradientUnits="userSpaceOnUse">
<stop offset="0.01" stop-color="#FFA220"/>
<stop offset="0.04" stop-color="#FFA61C"/>
<stop offset="0.34" stop-color="#FFC000"/>
<stop offset="0.61" stop-color="#FDC200"/>
<stop offset="0.74" stop-color="#F6C900"/>
<stop offset="0.75" stop-color="#F5CB00"/>
<stop offset="0.78" stop-color="#F3C200"/>
<stop offset="0.84" stop-color="#F0B100"/>
<stop offset="0.89" stop-color="#EFAB00"/>
<stop offset="1" stop-color="#B74600"/>
</linearGradient>
<linearGradient id="paint2_linear_4043_1133" x1="2.2759" y1="9.67603" x2="60.9632" y2="19.1342" gradientUnits="userSpaceOnUse">
<stop offset="0.01" stop-color="#C59252"/>
<stop offset="0.22" stop-color="#EBA31C"/>
<stop offset="0.34" stop-color="#FFAC00"/>
<stop offset="0.51" stop-color="#FDAC03"/>
<stop offset="0.63" stop-color="#F6AB0D"/>
<stop offset="0.75" stop-color="#E9AA1E"/>
<stop offset="0.78" stop-color="#E4A925"/>
<stop offset="0.8" stop-color="#E7AC21"/>
<stop offset="0.86" stop-color="#F4B70F"/>
<stop offset="0.93" stop-color="#FCBE04"/>
<stop offset="1" stop-color="#FFC000"/>
</linearGradient>
<linearGradient id="paint3_linear_4043_1133" x1="43.2669" y1="4.32402" x2="36.2489" y2="46.6363" gradientUnits="userSpaceOnUse">
<stop offset="0.01" stop-color="#C59252"/>
<stop offset="0.22" stop-color="#EBA31C"/>
<stop offset="0.34" stop-color="#FFAC00"/>
<stop offset="0.51" stop-color="#FDAC03"/>
<stop offset="0.63" stop-color="#F6AB0D"/>
<stop offset="0.75" stop-color="#E9AA1E"/>
<stop offset="0.78" stop-color="#E4A925"/>
<stop offset="0.8" stop-color="#E7AC21"/>
<stop offset="0.86" stop-color="#F4B70F"/>
<stop offset="0.93" stop-color="#FCBE04"/>
<stop offset="1" stop-color="#FFC000"/>
</linearGradient>
<linearGradient id="paint4_linear_4043_1133" x1="43.8251" y1="-4.50096" x2="-5.4082" y2="32.3639" gradientUnits="userSpaceOnUse">
<stop offset="0.11" stop-color="white"/>
<stop offset="0.61" stop-color="#878787"/>
<stop offset="0.95" stop-color="white"/>
</linearGradient>
<linearGradient id="paint5_linear_4043_1133" x1="66.8206" y1="43.9082" x2="-3.64294" y2="24.6232" gradientUnits="userSpaceOnUse">
<stop offset="0.01" stop-color="#001F2A"/>
<stop offset="0.16" stop-color="#004B5D"/>
<stop offset="0.2" stop-color="#00576E"/>
<stop offset="0.31" stop-color="#00799F"/>
<stop offset="0.42" stop-color="#0094C7"/>
<stop offset="0.52" stop-color="#00A8E3"/>
<stop offset="0.61" stop-color="#00B4F4"/>
<stop offset="0.67" stop-color="#00B8FA"/>
<stop offset="0.76" stop-color="#00B6F7"/>
<stop offset="0.83" stop-color="#01AEEC"/>
<stop offset="0.9" stop-color="#03A2DA"/>
<stop offset="0.97" stop-color="#0691C1"/>
<stop offset="1" stop-color="#0788B3"/>
</linearGradient>
</defs>
</svg>
