<svg width="24" height="24" viewBox="0 0 24 24" fill="none" xmlns="http://www.w3.org/2000/svg">
<path d="M5.70007 21.875C5.15007 21.9583 4.65423 21.8292 4.21257 21.4875C3.7709 21.1458 3.51673 20.7 3.45007 20.15L2.12507 9.225C2.0584 8.675 2.19173 8.18333 2.52507 7.75C2.8584 7.31667 3.30007 7.06667 3.85007 7L5.00007 6.85V15C5.00007 16.1 5.39173 17.0417 6.17507 17.825C6.9584 18.6083 7.90007 19 9.00007 19H18.3001C18.2001 19.4 18.0001 19.7458 17.7001 20.0375C17.4001 20.3292 17.0334 20.5 16.6001 20.55L5.70007 21.875ZM9.00007 17C8.45007 17 7.97923 16.8042 7.58757 16.4125C7.1959 16.0208 7.00007 15.55 7.00007 15V4C7.00007 3.45 7.1959 2.97917 7.58757 2.5875C7.97923 2.19583 8.45007 2 9.00007 2H20.0001C20.5501 2 21.0209 2.19583 21.4126 2.5875C21.8042 2.97917 22.0001 3.45 22.0001 4V15C22.0001 15.55 21.8042 16.0208 21.4126 16.4125C21.0209 16.8042 20.5501 17 20.0001 17H9.00007ZM12.7251 12.2L14.5001 11.125L16.2751 12.2C16.3751 12.2667 16.4709 12.2667 16.5626 12.2C16.6542 12.1333 16.6834 12.0417 16.6501 11.925L16.1751 9.9L17.7251 8.55C17.8084 8.46667 17.8376 8.37917 17.8126 8.2875C17.7876 8.19583 17.7167 8.14167 17.6001 8.125L15.5501 7.95L14.7251 6.05C14.6917 5.95 14.6167 5.9 14.5001 5.9C14.3834 5.9 14.3084 5.95 14.2751 6.05L13.4501 7.95L11.4001 8.125C11.2834 8.14167 11.2126 8.19583 11.1876 8.2875C11.1626 8.37917 11.1917 8.46667 11.2751 8.55L12.8251 9.9L12.3501 11.925C12.3167 12.0417 12.3459 12.1333 12.4376 12.2C12.5292 12.2667 12.6251 12.2667 12.7251 12.2Z" fill="white"/>
<path d="M4.21257 21.4875C4.65423 21.8291 5.15007 21.9583 5.70007 21.875L16.6001 20.55C17.0334 20.5 17.4001 20.3291 17.7001 20.0375C18.0001 19.7458 18.2001 19.4 18.3001 19H9.00007C7.90007 19 6.9584 18.6083 6.17507 17.825C5.39173 17.0416 5.00007 16.1 5.00007 15V6.84998L3.85007 6.99998C3.30007 7.06664 2.8584 7.31664 2.52507 7.74998C2.19173 8.18331 2.0584 8.67498 2.12507 9.22498L3.45007 20.15C3.51673 20.7 3.7709 21.1458 4.21257 21.4875Z" fill="#FFB700"/>
</svg>
