<svg width="100" height="100" viewBox="0 0 100 100" fill="none" xmlns="http://www.w3.org/2000/svg">
<path d="M49.4459 49.2812C43.5598 48.3553 38.6612 45.788 35.0967 40.8992C31.7173 36.3508 30.3237 30.6278 31.2335 25.0349C32.1149 19.5159 35.1572 14.575 39.6884 11.3034C44.2253 8.05103 49.8621 6.71938 55.3749 7.59766C60.9128 8.49398 65.8647 11.5612 69.134 16.12C72.4131 20.7051 73.7169 26.4134 72.7535 31.9675C71.8076 37.4739 68.7088 42.3773 64.1414 45.595C61.7498 47.2802 59.0301 48.4426 56.1593 49.0066C55.5016 49.1311 53.6008 49.3463 53.11 49.5259C53.6405 49.6009 54.0442 49.5885 54.5752 49.5848C55.7351 49.5425 57.5906 49.8166 58.7373 50.0215C65.2658 51.2254 71.3484 54.1691 76.3435 58.5417C83.6747 64.9375 88.1891 73.9647 88.9103 83.6667C89.0649 85.8702 88.4584 87.5577 86.9471 89.2099C80.9127 95.8053 67.5902 98.2692 58.9782 98.9119C48.446 99.6979 36.5112 98.7836 26.6013 95.1042C23.5998 93.9327 20.8052 92.6106 18.3697 90.4872C14.7268 87.3109 14.7829 84.8357 15.5298 80.3694C16.6509 73.5465 19.6671 67.1771 24.2342 61.9864C30.3836 55.0537 39.5066 50.1267 48.8188 49.5688C49.1153 49.3518 49.1349 49.6697 49.4459 49.2812Z" fill="white"/>
<path d="M49.446 49.2811C50.0118 49.2929 50.6375 49.3731 51.2051 49.4322C50.2643 49.5786 49.7862 49.5722 48.8188 49.5688C49.1153 49.3518 49.135 49.6697 49.446 49.2811Z" fill="#C1EFFF"/>
<path d="M38.1569 34.1047L38.3778 34.1617L38.4083 34.3253C38.2801 34.7174 37.9062 35.1627 37.6508 35.5056C37.5412 35.4349 37.4466 35.3596 37.3436 35.2804L37.3289 35.0629C37.4501 34.7178 37.8769 34.3709 38.1569 34.1047Z" fill="white"/>
<path d="M47.045 87.2324L47.2154 87.3302C47.2695 87.7733 46.7074 88.1835 46.3573 88.6459C46.1928 88.6234 46.2 88.6066 46.0728 88.4928L46.0647 88.3101C46.2354 87.9127 46.7073 87.4984 47.045 87.2324Z" fill="white"/>
<path d="M60.3892 11.8991C60.5706 11.9296 60.5574 11.9284 60.6985 12.0485L60.7101 12.2506C60.5558 12.5457 60.0777 12.9378 59.8091 13.205C59.5422 13.0998 59.5241 13.0898 59.521 12.8313C59.6768 12.4918 60.0989 12.1609 60.3892 11.8991Z" fill="white"/>
<path d="M55.5755 16.8096C56.0126 17.3811 55.028 17.9664 54.6204 18.176C54.5373 18.0666 54.5643 18.0971 54.5269 17.9536C54.7734 17.5296 55.2123 17.1376 55.5755 16.8096Z" fill="white"/>
<path d="M64.1843 70.089C64.3657 70.0946 64.2908 70.0609 64.417 70.1899C64.3883 70.6475 63.9669 71.0217 63.6557 71.3438C63.5541 71.2909 63.4547 71.2332 63.3549 71.1771L63.3416 70.992C63.4647 70.6755 63.9132 70.3294 64.1843 70.089Z" fill="white"/>
<path d="M48.6727 54.6294L48.9077 54.6669L48.97 54.8036C48.878 55.1322 48.377 55.6058 48.1263 55.8766L47.8883 55.8197L47.8206 55.657C47.9296 55.2348 48.3476 54.9062 48.6727 54.6294Z" fill="white"/>
<path d="M79.8035 85.395L79.9085 85.4687C80.2162 86.113 79.4213 86.5705 78.8933 86.738C78.8436 86.6779 78.7843 86.5793 78.7402 86.5112C78.8789 86.2027 79.5383 85.6418 79.8035 85.395Z" fill="white"/>
<path d="M26.6229 76.649C26.8399 76.8309 26.8045 76.8622 26.7921 77.105C26.5574 77.5321 26.1188 77.8606 25.7055 78.1074L25.541 77.9295C25.5991 77.4608 26.2484 76.9856 26.6229 76.649Z" fill="white"/>
<path d="M69.2379 65.02C69.4463 65.117 69.3665 65.0433 69.4738 65.2612C69.3726 65.7163 68.904 66.0553 68.5531 66.3598C68.4539 66.3413 68.4069 66.3085 68.3121 66.2636L68.2883 66.0761C68.4616 65.6442 68.873 65.2925 69.2379 65.02Z" fill="white"/>
<path d="M21.4381 25.0788C20.1435 24.81 19.1438 24.6698 17.8872 24.1524C15.0796 22.9878 12.8497 20.7552 11.6886 17.9461C10.5059 15.0603 10.5196 11.8225 11.7265 8.94682C12.8991 6.1328 15.1537 3.90836 17.9831 2.77359C20.8721 1.61661 24.1007 1.64498 26.9689 2.85251C30.3524 4.30524 32.1444 6.68576 33.4693 10.0068C30.6734 12.4835 28.1317 17.0158 27.0639 20.5568C26.653 21.9192 26.4134 23.0807 26.1559 24.4678C25.5689 24.6102 25.1175 24.7454 24.5039 24.8706L24.4422 25.176L25.987 25.3413C25.8857 27.2132 25.8122 28.8943 25.9704 30.7685C26.5071 37.1261 29.8085 43.8597 34.7505 47.9633C32.1097 49.0831 29.8307 50.6135 27.391 52.0671C27.1817 52.1919 26.3653 52.2953 26.1021 52.31C19.664 52.6714 12.8494 52.2149 6.8956 49.5612C5.08511 48.7543 2.0019 46.7699 2.08947 44.5335C2.50803 33.8458 10.8465 25.7546 21.4381 25.0788Z" fill="white"/>
<path d="M23.0928 25.1201C23.5896 25.0083 24.004 24.9438 24.504 24.8706L24.4422 25.176C24.0342 25.1932 23.5091 25.1458 23.0928 25.1201Z" fill="#C1EFFF"/>
<path d="M86.9938 31.4115C87.9345 31.3863 88.9738 31.7503 89.6829 32.3862C91.4353 33.9577 90.8536 37.0535 90.9601 39.4049C93.9409 39.3926 98.8536 38.6935 98.9064 43.1738C98.9169 44.2115 98.5114 45.2102 97.7806 45.9469C96.2598 47.4806 93.1212 47.0742 90.9145 47.0822C90.973 47.9756 90.9794 51.2855 90.8263 52.0149C90.7262 52.4859 90.5387 52.9338 90.2726 53.3353C89.5675 54.4015 88.6757 54.776 87.4818 55.024C87.2999 55.0295 87.1188 55.0296 86.9369 55.0242C82.6669 54.8642 83.2125 50.0307 83.3359 47.0749C80.489 47.0684 75.352 47.8107 75.3207 43.2856C75.2895 38.7363 80.1012 39.3832 83.2927 39.4037C83.2654 36.0088 82.489 31.9581 86.9938 31.4115Z" fill="#FFB700"/>
</svg>
