<svg width="56" height="34" viewBox="0 0 56 34" fill="none" xmlns="http://www.w3.org/2000/svg">
<path d="M16.9657 6.31003e-05C12.4563 0.0145949 8.13698 1.81042 4.95609 4.99326C1.7752 8.1761 -0.00727448 12.4858 2.23148e-05 16.9761C0.00731911 21.4664 1.80379 25.7704 4.99501 28.9429C8.18622 32.1155 12.5113 33.8974 17.0208 33.8974C21.5302 33.8974 25.8553 32.1155 29.0465 28.9429C32.2377 25.7704 34.0342 21.4664 34.0415 16.9761C34.0488 12.4858 32.2663 8.1761 29.0854 4.99326C25.9045 1.81042 21.5852 0.0145949 17.0758 6.31003e-05H16.9657Z" fill="#EB001B"/>
<path d="M38.0075 0C33.4981 0.0145318 29.1788 1.81036 25.9979 4.9932C22.8171 8.17604 21.0346 12.4857 21.0419 16.9761C21.0492 21.4664 22.8456 25.7703 26.0369 28.9429C29.2281 32.1155 33.5532 33.8974 38.0626 33.8974C42.572 33.8974 46.8972 32.1155 50.0884 28.9429C53.2796 25.7703 55.076 21.4664 55.0833 16.9761C55.0906 12.4857 53.3082 8.17604 50.1273 4.9932C46.9464 1.81036 42.6271 0.0145318 38.1177 0H38.0075Z" fill="#F79E1B"/>
<path d="M27.5417 3.62042C25.5142 5.20627 23.8749 7.23005 22.7477 9.539C21.6205 11.8479 21.0348 14.3817 21.0348 16.949C21.0348 19.5163 21.6205 22.0501 22.7477 24.3591C23.8749 26.668 25.5142 28.6918 27.5417 30.2776C29.5693 28.6918 31.2085 26.668 32.3357 24.3591C33.4629 22.0501 34.0486 19.5163 34.0486 16.949C34.0486 14.3817 33.4629 11.8479 32.3357 9.539C31.2085 7.23005 29.5693 5.20627 27.5417 3.62042Z" fill="#FF5F00"/>
</svg>
