<svg width="91" height="38" viewBox="0 0 91 38" fill="none" xmlns="http://www.w3.org/2000/svg">
<path d="M16.5378 4.78781C15.4771 6.04219 13.7798 7.03155 12.0826 6.89021C11.8704 5.19416 12.7013 3.3921 13.6737 2.27907C14.7345 0.989363 16.5909 0.0706688 18.0937 0C18.2705 1.76672 17.5809 3.49811 16.5378 4.78781ZM18.076 7.22589C15.6185 7.08455 13.5146 8.6216 12.3478 8.6216C11.1632 8.6216 9.37756 7.29656 7.43279 7.33189C4.90459 7.36723 2.55319 8.79827 1.26257 11.0773C-1.38939 15.6355 0.573061 22.3844 3.13662 26.0945C4.39188 27.9319 5.89465 29.9459 7.87478 29.8753C9.74883 29.8046 10.4914 28.6562 12.7544 28.6562C15.0351 28.6562 15.6892 29.8752 17.6693 29.8399C19.7202 29.8046 21.0108 28.0025 22.2661 26.1651C23.6981 24.0804 24.2816 22.0487 24.3169 21.9427C24.2816 21.9073 20.3567 20.4056 20.3213 15.8828C20.2859 12.102 23.4153 10.3 23.5567 10.194C21.7887 7.57923 19.0307 7.29656 18.076 7.22589ZM32.2728 2.1024V29.6456H36.5513V20.229H42.474C47.884 20.229 51.6851 16.5188 51.6851 11.148C51.6851 5.77718 47.9547 2.1024 42.6154 2.1024H32.2728ZM36.5513 5.70651H41.4839C45.1967 5.70651 47.3182 7.68524 47.3182 11.1657C47.3182 14.6461 45.1967 16.6425 41.4662 16.6425H36.5513V5.70651ZM59.4996 29.8576C62.1869 29.8576 64.6797 28.4972 65.8112 26.3418H65.8996V29.6456H69.8599V15.9358C69.8599 11.9607 66.6775 9.39896 61.7802 9.39896C57.2365 9.39896 53.8774 11.996 53.7536 15.5648H57.6078C57.9261 13.8688 59.4995 12.7557 61.6565 12.7557C64.2731 12.7557 65.7405 13.9748 65.7405 16.2185V17.7379L60.4012 18.0559C55.4332 18.3562 52.7459 20.388 52.7459 23.9214C52.7459 27.4902 55.5216 29.8576 59.4996 29.8576ZM60.6487 26.5891C58.368 26.5891 56.9183 25.4938 56.9183 23.8154C56.9183 22.084 58.315 21.077 60.9846 20.918L65.7405 20.6176V22.1723C65.7405 24.7518 63.5482 26.5891 60.6487 26.5891ZM75.1461 37.1365C79.3185 37.1365 81.281 35.5464 82.9959 30.7233L90.5098 9.66396H86.1606L81.1218 25.9355H81.0334L75.9947 9.66396H71.5218L78.7704 29.7162L78.3815 30.9353C77.7273 33.0023 76.6665 33.7974 74.7748 33.7974C74.4389 33.7974 73.7848 33.762 73.5196 33.7267V37.0305C73.7671 37.1011 74.8279 37.1365 75.1461 37.1365Z" fill="white"/>
</svg>
