<svg width="91" height="37" viewBox="0 0 91 37" fill="none" xmlns="http://www.w3.org/2000/svg">
<path d="M42.9806 17.6694V28.2672H39.5717V2.05763H48.4349C50.5938 2.05763 52.6392 2.85531 54.23 4.33673C55.8208 5.70418 56.6162 7.75537 56.6162 9.92051C56.6162 12.0856 55.8208 14.0229 54.23 15.5043C52.6392 16.9857 50.7075 17.7834 48.4349 17.7834L42.9806 17.6694ZM42.9806 5.24836V14.3647H48.6621C49.912 14.3647 51.162 13.9089 51.9574 12.9973C53.7755 11.288 53.7755 8.4391 52.071 6.72978L51.9574 6.61582C51.0484 5.70418 49.912 5.13441 48.6621 5.24836H42.9806Z" fill="white"/>
<path d="M64.4566 9.80621C66.9564 9.80621 68.8881 10.4899 70.3653 11.8574C71.8425 13.2249 72.5243 15.0481 72.5243 17.3272V28.2669H69.3427V25.7599H69.229C67.8655 27.8111 65.9338 28.8367 63.6612 28.8367C61.7295 28.8367 60.025 28.2669 58.6614 27.1273C57.4115 25.9878 56.6161 24.3924 56.6161 22.6831C56.6161 20.8598 57.2979 19.3784 58.6614 18.2389C60.025 17.0993 61.9567 16.6435 64.2293 16.6435C66.2747 16.6435 67.8655 16.9854 69.1154 17.783V16.9854C69.1154 15.8458 68.6609 14.7063 67.7518 14.0225C66.8428 13.2249 65.7065 12.769 64.4566 12.769C62.5249 12.769 61.0477 13.5667 60.025 15.1621L57.0706 13.3388C58.8887 10.9458 61.2749 9.80621 64.4566 9.80621ZM60.1386 22.7971C60.1386 23.7087 60.5932 24.5064 61.2749 24.9622C62.0703 25.532 62.9794 25.8738 63.8884 25.8738C65.252 25.8738 66.6155 25.3041 67.6382 24.2785C68.7745 23.2529 69.3427 21.9994 69.3427 20.6319C68.32 19.8342 66.8428 19.3784 64.9111 19.3784C63.5475 19.3784 62.4112 19.7203 61.5022 20.404C60.5932 20.9738 60.1386 21.7715 60.1386 22.7971Z" fill="white"/>
<path d="M90.932 10.3757L79.6827 36.2434H76.2738L80.4781 27.241L73.0921 10.4897H76.7283L82.0689 23.3665H82.1825L87.4095 10.4897H90.932V10.3757Z" fill="white"/>
<path d="M29.4586 15.3898C29.4586 14.3642 29.345 13.3386 29.2314 12.313H15.0277V18.1247H23.0954C22.7545 19.948 21.7318 21.6573 20.141 22.6829V26.4434H25.0271C27.8678 23.8224 29.4586 19.948 29.4586 15.3898Z" fill="#4285F4"/>
<path d="M15.0276 30.0901C19.1183 30.0901 22.5272 28.7225 25.0271 26.4434L20.141 22.6829C18.7774 23.5945 17.0729 24.1645 15.0276 24.1645C11.1642 24.1645 7.75528 21.5435 6.61898 17.897H1.61927V21.7714C4.23275 26.8994 9.34609 30.0901 15.0276 30.0901Z" fill="#34A853"/>
<path d="M6.61898 17.897C5.9372 16.0737 5.93711 14.0226 6.61889 12.0853V8.21086H1.61918C-0.539787 12.4272 -0.539696 17.4411 1.61927 21.7714L6.61898 17.897Z" fill="#FBBC04"/>
<path d="M15.0277 5.93178C17.1866 5.93178 19.232 6.72946 20.8228 8.21087L25.1407 3.88059C22.4136 1.37359 18.7775 -0.107824 15.1413 0.00613092C9.45981 0.00613092 4.23284 3.19686 1.73299 8.32482L6.7327 12.1993C7.75537 8.55273 11.1643 5.93178 15.0277 5.93178Z" fill="#EA4335"/>
</svg>
