<?xml version="1.0" encoding="UTF-8"?>
<svg version="1.1" xmlns="http://www.w3.org/2000/svg" width="512" height="512">
<path d="M0 0 C1.58100265 -0.00374032 3.16200345 -0.00834336 4.74300134 -0.01373065 C9.07193369 -0.02592904 13.40078858 -0.02570391 17.72973418 -0.02334189 C22.40476524 -0.02293292 27.07977172 -0.03398061 31.75479126 -0.04345703 C40.90872888 -0.06005112 50.06264074 -0.06556588 59.21659215 -0.06668179 C66.66047489 -0.0676331 74.10434916 -0.07174757 81.54822922 -0.07808304 C102.66868615 -0.09569182 123.78912278 -0.10492258 144.9095871 -0.10342209 C146.61655233 -0.10330222 146.61655233 -0.10330222 148.35800171 -0.10317993 C149.49737361 -0.10309817 150.63674551 -0.10301641 151.81064384 -0.10293217 C170.26837283 -0.10211958 188.72602017 -0.12125147 207.18372555 -0.14945666 C226.15134687 -0.17821153 245.11892839 -0.1919955 264.08657205 -0.19026911 C274.72922425 -0.18960607 285.37179085 -0.19506079 296.01442337 -0.21662521 C305.07725995 -0.23487135 314.13997215 -0.23915626 323.20281918 -0.22560637 C327.82243496 -0.21909378 332.44181235 -0.2188974 337.06140518 -0.23631287 C341.29944472 -0.25212484 345.53705845 -0.24909786 349.77508812 -0.2317446 C351.29930395 -0.22869245 352.82355221 -0.2322389 354.34772976 -0.24346475 C374.53196099 -0.38214924 392.30296606 5.57154228 407.44052124 19.26742554 C408.19848999 19.93258179 408.95645874 20.59773804 409.73739624 21.28305054 C422.36261051 33.03756037 431.64043973 50.19482008 432.6282661 67.56966317 C432.70416913 71.60379738 432.71711494 75.63368387 432.70794678 79.6683197 C432.71168721 81.23211048 432.71629029 82.79589939 432.72167742 84.35968536 C432.73387463 88.64108104 432.73365082 92.92239839 432.73128867 97.20380747 C432.73087967 101.82773256 432.74192775 106.45163282 432.75140381 111.07554626 C432.76799758 120.12955505 432.77351265 129.18353779 432.77462856 138.23756052 C432.77557996 145.60086643 432.77969481 152.96416377 432.78602982 160.32746696 C432.80363901 181.22150817 432.81286937 202.11552885 432.81136887 223.00957752 C432.811249 224.69822669 432.811249 224.69822669 432.81112671 226.42098999 C432.81104495 227.54813712 432.81096319 228.67528426 432.81087895 229.83658736 C432.81006649 248.09317887 432.82919492 266.34968779 432.85740344 284.60625542 C432.88616487 303.36934938 432.89994189 322.13240312 432.89821589 340.89551967 C432.89755304 351.42250903 432.90299909 361.94941185 432.92457199 372.4763813 C432.94282685 381.44147357 432.94709597 390.40644008 432.93355314 399.37154294 C432.92704474 403.94065192 432.9268288 408.50951993 432.94425964 413.07860565 C432.96009057 417.27167197 432.95702572 421.46430826 432.93969138 425.65736472 C432.93664332 427.16410185 432.94016982 428.67087189 432.95141153 430.17757017 C433.04415505 443.50381866 431.08109073 456.75892052 424.69052124 468.64242554 C424.34690552 469.3025061 424.00328979 469.96258667 423.64926147 470.64266968 C420.5506704 476.41151095 416.87055097 481.43928606 412.44052124 486.26742554 C411.77665405 487.02281616 411.11278687 487.77820679 410.42880249 488.55648804 C397.97788103 501.95100983 379.42751953 511.43753676 361.06545985 512.4543159 C357.05119375 512.53064605 353.0413051 512.54406355 349.02653503 512.53485107 C347.4735429 512.5385926 345.92055264 512.54319611 344.36756533 512.54858172 C340.1207029 512.56076513 335.87391951 512.56055677 331.6270436 512.55819297 C327.03860197 512.55778362 322.45018528 512.56883521 317.86175537 512.57830811 C308.87974116 512.59489353 299.89775321 512.60041654 290.91572497 512.60153286 C283.61154955 512.60248451 276.30738276 512.60660063 269.00321007 512.61293411 C248.27602391 512.63053988 227.54885842 512.63977403 206.82166473 512.63827316 C205.14691106 512.6381533 205.14691106 512.6381533 203.43832397 512.63803101 C202.32045188 512.63794924 201.20257978 512.63786748 200.05083277 512.63778324 C181.93912585 512.63697055 163.82750214 512.65610577 145.71581928 512.68430774 C127.10073006 512.71306391 108.48568139 512.72684653 89.87056941 512.72512019 C79.42690464 512.72445723 68.9833271 512.72990829 58.53968239 512.75147629 C49.6470491 512.76972406 40.75454258 512.77400593 31.86189864 512.76045744 C27.32936069 512.75394591 22.79706571 512.75374463 18.26455116 512.77116394 C14.10611697 512.78698048 9.94811665 512.78394441 5.78969248 512.76659568 C4.29444305 512.76354454 2.79916054 512.76708608 1.30395017 512.77831583 C-12.07285374 512.87203712 -24.61596477 510.55348553 -36.55947876 504.26742554 C-37.47986938 503.79820679 -38.40026001 503.32898804 -39.34854126 502.84555054 C-57.09397713 493.21624425 -70.54602617 477.08184971 -76.67907286 457.7357803 C-79.23878267 448.07453888 -80.1324266 438.97114378 -80.06741333 428.98005676 C-80.07203555 427.4053835 -80.07839725 425.83071457 -80.08632231 424.25605446 C-80.10285741 419.97704331 -80.09484233 415.69839383 -80.08237743 411.41938221 C-80.07326376 406.78604444 -80.0873277 402.15276548 -80.09829712 397.5194397 C-80.11601956 388.46200833 -80.11227057 379.40471007 -80.10064656 370.34727364 C-80.09158826 362.98221234 -80.09039857 355.61718816 -80.09474182 348.25212288 C-80.09535475 347.20120893 -80.09596769 346.15029498 -80.09659919 345.06753515 C-80.09787818 342.93218865 -80.09917503 340.79684217 -80.10048956 338.66149569 C-80.11187683 318.6710179 -80.09881049 298.68061367 -80.07728809 278.69014794 C-80.0594162 261.56035276 -80.06252559 244.43066603 -80.08096313 227.3008728 C-80.10239813 207.37709157 -80.11078111 187.45337467 -80.09851408 167.52958351 C-80.09723997 165.40269316 -80.09598248 163.2758028 -80.09474182 161.14891243 C-80.09412472 160.1026169 -80.09350762 159.05632138 -80.09287181 157.97831992 C-80.089427 150.62685709 -80.09522844 143.27543528 -80.10466003 135.92397881 C-80.11591053 126.9582821 -80.11277592 117.99272538 -80.09153706 109.02704459 C-80.081068 104.45802062 -80.07683364 99.88922953 -80.09013367 95.3202076 C-80.10214976 91.1286911 -80.09534519 86.93762093 -80.07422346 82.7461443 C-80.06979611 81.23896766 -80.07193531 79.73175243 -80.08172661 78.22460108 C-80.20230904 58.10260019 -74.2072966 40.35185579 -60.55947876 25.26742554 C-59.89432251 24.50945679 -59.22916626 23.75148804 -58.54385376 22.97055054 C-42.86235975 6.12746438 -22.49305542 -0.05054256 0 0 Z " fill="#FEB829" transform="translate(79.55947875976563,-0.267425537109375)"/>
<path d="M0 0 C3.10485394 2.50113234 5.46336676 5.23923352 7.25 8.8125 C7.37095041 11.02786729 7.42749172 13.24684004 7.45532227 15.46533203 C7.46522186 16.14837402 7.47512146 16.83141602 7.48532104 17.53515625 C7.51695309 19.79683953 7.54170011 22.05854382 7.56640625 24.3203125 C7.58697431 25.88687695 7.60797075 27.45343583 7.62937927 29.01998901 C7.68461522 33.14633682 7.73401775 37.27273483 7.78222656 41.39916992 C7.83243048 45.60860674 7.88812233 49.8179705 7.94335938 54.02734375 C8.05095958 62.28900076 8.15240039 70.55071882 8.25 78.8125 C9.57 79.1425 10.89 79.4725 12.25 79.8125 C12.58 61.6625 12.91 43.5125 13.25 24.8125 C23.37852405 30.4394578 23.37852405 30.4394578 26.56640625 32.71484375 C27.26830078 33.21306641 27.97019531 33.71128906 28.69335938 34.22460938 C29.39267578 34.72798828 30.09199219 35.23136719 30.8125 35.75 C31.51568359 36.24951172 32.21886719 36.74902344 32.94335938 37.26367188 C35.05407109 38.76854914 37.15357078 40.287802 39.25 41.8125 C39.97251953 42.33287842 40.69503906 42.85325684 41.43945312 43.3894043 C44.89836138 45.91966398 48.07099466 48.25854184 50.625 51.75 C51.31722656 52.66072266 51.31722656 52.66072266 52.0234375 53.58984375 C54.83741275 58.68905367 55.50265714 63.91514681 55.54052734 69.65893555 C55.54724457 70.30392502 55.55396179 70.94891449 55.56088257 71.6134491 C55.57972853 73.72545286 55.58378038 75.83713636 55.5859375 77.94921875 C55.59237658 79.4350446 55.59910574 80.92086921 55.60610962 82.4066925 C55.61805029 85.51586846 55.62179396 88.62493361 55.62060547 91.73413086 C55.62040289 95.68682266 55.64765575 99.63879059 55.68214989 103.59131145 C55.70457051 106.66029516 55.70843836 109.72910912 55.70738602 112.79816628 C55.70972114 114.25359392 55.71842457 115.70902777 55.73405075 117.1643734 C55.86954779 131.09141779 53.48954179 142.29566594 43.625 152.4921875 C35.05761651 160.46461381 25.26861298 162.18108521 13.8984375 162.09765625 C3.6671341 161.29799335 -4.98203047 156.42646572 -11.75 148.8125 C-18.84649255 139.46203463 -20.04968472 132.09453203 -20.05639648 120.54663086 C-20.06472 119.32629654 -20.07304352 118.10596222 -20.08161926 116.84864807 C-20.10152341 113.518117 -20.11234731 110.18783524 -20.11744571 106.85726619 C-20.12109987 104.7738524 -20.12734513 102.69046228 -20.1344471 100.60705757 C-20.15889582 93.33169635 -20.17198522 86.05640606 -20.17553711 78.78100586 C-20.17917707 72.00921064 -20.20911655 65.23786731 -20.25094169 58.46621031 C-20.2856549 52.64095481 -20.30108566 46.81584919 -20.30178314 40.99049097 C-20.3025751 37.51600751 -20.31127673 34.04198593 -20.33978081 30.56760979 C-20.37085068 26.6945535 -20.36189687 22.82214712 -20.34936523 18.94897461 C-20.37161667 17.23053848 -20.37161667 17.23053848 -20.39431763 15.47738647 C-20.31438895 6.81363694 -20.31438895 6.81363694 -17.32582092 3.13990784 C-12.11904751 -1.5647225 -6.6175823 -2.85759236 0 0 Z " fill="#2C2826" transform="translate(79.75,317.1875)"/>
<path d="M0 0 C5.17430264 4.18370295 7.68827615 9.03341045 8.91796875 15.55078125 C9.22901676 19.9623524 9.24264223 24.36776888 9.26171875 28.7890625 C9.27634155 30.06500778 9.29096436 31.34095306 9.30603027 32.65556335 C9.35241031 36.72477422 9.38705103 40.79393211 9.41796875 44.86328125 C9.45873548 50.21371647 9.51304051 55.5638106 9.57421875 60.9140625 C9.5821344 62.73953362 9.5821344 62.73953362 9.59020996 64.60188293 C9.68253634 72.5711672 10.38975401 79.96613703 12.91796875 87.55078125 C10.02425545 88.39215168 7.12837478 89.22408485 4.23046875 90.05078125 C3.00553711 90.40849609 3.00553711 90.40849609 1.75585938 90.7734375 C-2.2737425 91.91542993 -5.84707972 92.89578748 -10.08203125 92.55078125 C-11.07203125 89.91078125 -12.06203125 87.27078125 -13.08203125 84.55078125 C-13.448125 85.13085938 -13.81421875 85.7109375 -14.19140625 86.30859375 C-20.14703126 94.90170984 -28.88112929 99.5506044 -39.08203125 101.55078125 C-45.4035163 102.26642107 -50.60009913 100.61740664 -56.08203125 97.55078125 C-61.40536763 93.15178989 -64.40236195 87.19110211 -65.40014648 80.37890625 C-65.55412111 78.13491951 -65.60106897 75.92488343 -65.58203125 73.67578125 C-65.57631104 72.8871167 -65.57059082 72.09845215 -65.56469727 71.28588867 C-65.30579986 62.81724124 -62.58401153 57.04303094 -56.89453125 50.80078125 C-45.73573086 40.60187767 -28.13712926 34.55078125 -13.08203125 34.55078125 C-13.16963714 32.48751148 -13.27782398 30.42510965 -13.39453125 28.36328125 C-13.45253906 27.21472656 -13.51054687 26.06617188 -13.5703125 24.8828125 C-14.10967374 21.37078853 -14.98150355 19.38779027 -17.08203125 16.55078125 C-20.79439539 14.69459918 -25.03046213 15.10268144 -29.08203125 15.55078125 C-33.55014591 17.74421935 -35.99066481 20.03783262 -38.08203125 24.55078125 C-38.44066098 26.21218837 -38.77773881 27.87856864 -39.08203125 29.55078125 C-42.16394829 30.22411118 -45.24777205 30.88826984 -48.33203125 31.55078125 C-49.20472656 31.7415625 -50.07742188 31.93234375 -50.9765625 32.12890625 C-51.82089844 32.309375 -52.66523438 32.48984375 -53.53515625 32.67578125 C-54.69772949 32.92714844 -54.69772949 32.92714844 -55.88378906 33.18359375 C-58.08203125 33.55078125 -58.08203125 33.55078125 -62.08203125 33.55078125 C-61.8786717 23.82649712 -59.60206288 16.13974072 -53.01953125 8.80078125 C-48.42695761 4.5312018 -42.76981052 2.05371409 -37.08203125 -0.44921875 C-36.25960938 -0.81402344 -35.4371875 -1.17882812 -34.58984375 -1.5546875 C-24.44069932 -5.17486519 -9.34616551 -5.7106519 0 0 Z " fill="#2A2726" transform="translate(398.08203125,159.44921875)"/>
<path d="M0 0 C7.09189346 6.35824931 11.00428863 16.20203215 12 25.5625 C12.08108916 28.66596395 12.06485225 31.7668506 12.04296875 34.87109375 C12.03986694 35.70733276 12.03676514 36.54357178 12.03356934 37.40515137 C12.02550896 39.45761559 12.01317969 41.51006227 12 43.5625 C10.77482666 43.82466309 9.54965332 44.08682617 8.28735352 44.35693359 C3.70817611 45.33688546 -0.87090188 46.31730121 -5.44995117 47.29785156 C-7.42551034 47.72082819 -9.40109584 48.14368182 -11.37670898 48.56640625 C-14.22907463 49.17675348 -17.08134283 49.78755438 -19.93359375 50.3984375 C-20.80584091 50.58497894 -21.67808807 50.77152039 -22.57676697 50.9637146 C-23.41695877 51.14375031 -24.25715057 51.32378601 -25.12280273 51.50927734 C-26.3395015 51.76919464 -26.3395015 51.76919464 -27.58078003 52.03436279 C-29.21871252 52.391938 -30.85406873 52.76148819 -32.48684692 53.14190674 C-33.27630707 53.3253363 -34.06576721 53.50876587 -34.87915039 53.69775391 C-35.92625938 53.94690048 -35.92625938 53.94690048 -36.99452209 54.20108032 C-39 54.5625 -39 54.5625 -43 54.5625 C-42.57424494 56.79393965 -42.13389613 59.02259775 -41.6875 61.25 C-41.32205078 63.11205078 -41.32205078 63.11205078 -40.94921875 65.01171875 C-39.62628274 69.96047936 -38.28413302 72.70641132 -34 75.5625 C-28.11511261 76.34242483 -22.98033091 76.00129992 -18 72.5625 C-15.37204153 69.86154268 -14.11776778 68.33151354 -13.54296875 64.578125 C-12 61.5625 -12 61.5625 -9.92138672 60.59301758 C-7.15016314 59.80008922 -4.38972657 59.18594276 -1.5625 58.625 C-0.59505859 58.40521484 0.37238281 58.18542969 1.36914062 57.95898438 C8.52589286 56.40446429 8.52589286 56.40446429 12 57.5625 C8.45532464 70.86545812 3.3211281 82.90952474 -8.8984375 90.3203125 C-20.06416635 96.14224165 -32.54471022 99.19918911 -45.01171875 95.72265625 C-54.00112578 91.63405918 -59.27712241 84.4715823 -63 75.51953125 C-68.86787159 58.16805159 -67.74819781 36.79996713 -59.875 20.375 C-53.14720879 7.82481392 -44.4006209 0.26462251 -31 -4.4375 C-20.03314624 -6.53879168 -9.36838169 -6.73352434 0 0 Z " fill="#2A2726" transform="translate(264,192.4375)"/>
<path d="M0 0 C5.54769984 2.80473912 8.36021271 8.06943835 10.49458313 13.65022278 C13.02878533 21.9888606 13.01430138 30.14961715 12.921875 38.7734375 C12.91626677 40.32712897 12.91200249 41.88082582 12.90901184 43.43452454 C12.89765942 47.48696015 12.86827738 51.53906358 12.8348999 55.59136963 C12.80398959 59.74120594 12.79046211 63.89109691 12.77539062 68.04101562 C12.74339644 76.15640097 12.69231936 84.27151832 12.62890625 92.38671875 C9.71393794 93.22642155 6.79718765 94.05867878 3.87890625 94.88671875 C3.05390625 95.12519531 2.22890625 95.36367188 1.37890625 95.609375 C0.5796875 95.83496094 -0.21953125 96.06054688 -1.04296875 96.29296875 C-2.1427002 96.60717773 -2.1427002 96.60717773 -3.26464844 96.92773438 C-5.37109375 97.38671875 -5.37109375 97.38671875 -9.37109375 97.38671875 C-9.3791806 96.57541 -9.38726746 95.76410126 -9.39559937 94.9282074 C-9.47370661 87.26313782 -9.56104533 79.59825419 -9.65862083 71.93340969 C-9.70845715 67.99332096 -9.75478773 64.05325739 -9.79296875 60.11303711 C-9.8299823 56.30684726 -9.87638463 52.50087472 -9.92915726 48.6948719 C-9.94761619 47.24654027 -9.96275516 45.7981622 -9.97443771 44.34976006 C-9.99144694 42.31294621 -10.02051445 40.27662091 -10.05224609 38.23999023 C-10.06556976 37.08305161 -10.07889343 35.92611298 -10.09262085 34.7341156 C-10.4008035 31.02959131 -11.07300548 27.87124042 -12.37109375 24.38671875 C-16.44156722 23.02989426 -20.11501092 22.86199621 -24.37109375 23.38671875 C-30.40971123 26.46299558 -33.8465103 30.48574885 -36.05859375 36.82421875 C-38.23678865 43.62651457 -38.55737788 50.29679702 -38.6875 57.37890625 C-38.7082811 58.3248465 -38.72906219 59.27078674 -38.75047302 60.24539185 C-38.8155696 63.25076416 -38.87466711 66.25621976 -38.93359375 69.26171875 C-38.97681695 71.30599801 -39.02043243 73.35026901 -39.06445312 75.39453125 C-39.17120985 80.39184291 -39.27258846 85.38923791 -39.37109375 90.38671875 C-40.40234375 90.05671875 -41.43359375 89.72671875 -42.49609375 89.38671875 C-48.8274155 87.91784908 -48.8274155 87.91784908 -61.37109375 88.38671875 C-61.37109375 62.97671875 -61.37109375 37.56671875 -61.37109375 11.38671875 C-40.37109375 6.38671875 -40.37109375 6.38671875 -38.37109375 6.38671875 C-38.04109375 9.68671875 -37.71109375 12.98671875 -37.37109375 16.38671875 C-36.90960938 15.73445313 -36.448125 15.0821875 -35.97265625 14.41015625 C-26.98145509 2.36265746 -15.15751545 -3.92047764 0 0 Z " fill="#2B2726" transform="translate(125.37109375,216.61328125)"/>
<path d="M0 0 C7.06079814 5.58264975 10.55940248 12.69406442 11.77734375 21.52734375 C8.48663534 22.36449284 5.19462728 23.19641271 1.90234375 24.02734375 C0.96519531 24.26582031 0.02804687 24.50429687 -0.9375 24.75 C-2.28134766 25.08837891 -2.28134766 25.08837891 -3.65234375 25.43359375 C-4.47976074 25.64306641 -5.30717773 25.85253906 -6.15966797 26.06835938 C-8.22265625 26.52734375 -8.22265625 26.52734375 -10.22265625 26.52734375 C-10.3928125 25.98464844 -10.56296875 25.44195312 -10.73828125 24.8828125 C-10.980625 24.16738281 -11.22296875 23.45195312 -11.47265625 22.71484375 C-11.82070313 21.65330078 -11.82070313 21.65330078 -12.17578125 20.5703125 C-13.49033839 18.00496405 -14.73658494 16.97201264 -17.22265625 15.52734375 C-21.37897649 14.6292444 -25.43986966 14.63763551 -29.2890625 16.55859375 C-35.03846213 21.02896927 -37.74476323 27.53785176 -39.22265625 34.52734375 C-39.47385938 38.56562445 -39.453928 42.60704169 -39.47265625 46.65234375 C-39.49328125 47.74289063 -39.51390625 48.8334375 -39.53515625 49.95703125 C-39.57422965 58.12337092 -38.75554171 66.12698218 -34.22265625 73.15234375 C-30.35155331 76.21696691 -27.79424784 76.39785951 -22.9453125 76.09765625 C-18.47551093 75.1613707 -15.84482796 73.24513038 -13.22265625 69.52734375 C-12.54665938 67.81746931 -11.92294911 66.08617719 -11.34765625 64.33984375 C-9.77788118 59.88435451 -9.77788118 59.88435451 -7.296875 58.2890625 C-4.94468863 57.49687538 -2.6630731 56.97566314 -0.22265625 56.52734375 C0.98777344 56.22763672 0.98777344 56.22763672 2.22265625 55.921875 C5.90884892 55.0155339 8.94345084 54.52734375 12.77734375 54.52734375 C12.01532188 66.14817722 8.30928732 77.30351073 -0.29296875 85.5 C-11.44237135 94.64872583 -23.9501246 97.79565646 -38.22265625 96.52734375 C-45.42531941 94.89526132 -50.81499284 91.45295247 -55.22265625 85.52734375 C-64.78685518 69.4767865 -66.05613075 48.2777408 -61.59765625 30.27734375 C-57.47720037 17.31298257 -50.53495597 5.47222683 -38.16015625 -0.97265625 C-25.30222429 -6.71251491 -12.24801435 -8.11511671 0 0 Z " fill="#2A2726" transform="translate(479.22265625,142.47265625)"/>
<path d="M0 0 C0 5.94 0 11.88 0 18 C1.340625 17.525625 2.68125 17.05125 4.0625 16.5625 C8.1858208 15.10347879 11.46898151 14.64728836 16 14 C16 20.6 16 27.2 16 34 C10.72 34.99 5.44 35.98 0 37 C0.33 55.81 0.66 74.62 1 94 C9.37896557 94.2941742 9.37896557 94.2941742 15 93 C15 98.94 15 104.88 15 111 C6.57086265 114.84269497 -2.04045503 118.57376207 -11.35546875 115.12890625 C-16.77845327 112.02569747 -19.68162355 108.13822301 -21.59056091 102.14630127 C-22.10135613 99.46868581 -22.11945313 96.94844014 -22.11352539 94.22167969 C-22.11344986 93.0607782 -22.11337433 91.89987671 -22.11329651 90.70379639 C-22.10813522 89.45576233 -22.10297394 88.20772827 -22.09765625 86.921875 C-22.0962413 85.64016418 -22.09482635 84.35845337 -22.09336853 83.03790283 C-22.08955901 79.6381636 -22.07974214 76.2384674 -22.06866455 72.83874512 C-22.05841674 69.366461 -22.0538637 65.8941699 -22.04882812 62.421875 C-22.03811841 55.61456392 -22.02053433 48.80728846 -22 42 C-26.29 42.99 -30.58 43.98 -35 45 C-35 38.4 -35 31.8 -35 25 C-30.71 24.34 -26.42 23.68 -22 23 C-22 16.73 -22 10.46 -22 4 C-19.1125 3.34 -16.225 2.68 -13.25 2 C-12.34668945 1.79117188 -11.44337891 1.58234375 -10.51269531 1.3671875 C-9.79178711 1.20476562 -9.07087891 1.04234375 -8.328125 0.875 C-7.5949707 0.70742187 -6.86181641 0.53984375 -6.10644531 0.3671875 C-4 0 -4 0 0 0 Z " fill="#292626" transform="translate(178,185)"/>
<path d="M0 0 C0 42.57 0 85.14 0 129 C-4.25129549 130.4170985 -8.28306409 131.61832165 -12.625 132.625 C-13.73101562 132.88539063 -14.83703125 133.14578125 -15.9765625 133.4140625 C-19 134 -19 134 -23 134 C-23 91.1 -23 48.2 -23 4 C-4 0 -4 0 0 0 Z " fill="#282626" transform="translate(48,200)"/>
<path d="M0 0 C0 8.58 0 17.16 0 26 C-3.3 27.32 -6.6 28.64 -10 30 C-17.48900712 34.91082434 -20.66078011 41.8052744 -22.53930664 50.49462891 C-23.17844915 55.35780231 -23.23603268 60.18549867 -23.31640625 65.0859375 C-23.33718735 66.14285797 -23.35796844 67.19977844 -23.37937927 68.28872681 C-23.44453991 71.65075445 -23.50360361 75.01285737 -23.5625 78.375 C-23.60571708 80.6601639 -23.64933238 82.94532031 -23.69335938 85.23046875 C-23.80018683 90.82023391 -23.90201425 96.41007324 -24 102 C-31.23098968 104.06599705 -38.62569719 105.52513944 -46 107 C-46 74.66 -46 42.32 -46 9 C-28 5 -28 5 -24 5 C-23.505 11.93 -23.505 11.93 -23 19 C-22.29875 17.453125 -21.5975 15.90625 -20.875 14.3125 C-16.93055694 6.50073987 -9.15810348 0 0 0 Z " fill="#292626" transform="translate(332,169)"/>
<path d="M0 0 C0.28460793 8.96514968 -0.10873428 16.79956412 -6 24 C-10.17686313 28.1423436 -14.09360201 30.69725021 -20 31.3125 C-23.48172943 30.94981985 -25.24670899 30.14144857 -28 28 C-30.25176779 25.10486998 -30.6111866 21.7879239 -30.49609375 18.15234375 C-29.27474501 12.85342125 -25.07320364 9.33598766 -20.66015625 6.4921875 C-14.41026923 3.1944588 -7.15391592 0 0 0 Z " fill="#F9B529" transform="translate(385,209)"/>
<path d="M0 0 C0 6.93 0 13.86 0 21 C-3.7434375 22.0209375 -3.7434375 22.0209375 -7.5625 23.0625 C-8.33408447 23.28043213 -9.10566895 23.49836426 -9.90063477 23.72290039 C-14.56888232 24.94067823 -18.21008263 25.13227007 -23 24 C-26.02519989 21.94028944 -27.66926776 20.48426176 -28.48046875 16.84375 C-28.73703962 12.68314125 -28.62315683 10.821434 -26.0234375 7.39453125 C-22.18657133 4.3557729 -18.69251123 3.34920124 -14 2.1875 C-13.2059375 1.97158203 -12.411875 1.75566406 -11.59375 1.53320312 C-7.45682033 0.44725909 -4.38154095 0 0 0 Z " fill="#292626" transform="translate(53,397)"/>
<path d="M0 0 C0 6.93 0 13.86 0 21 C-10.37770383 24.45923461 -10.37770383 24.45923461 -15.75 24.9375 C-16.81734375 25.04964844 -17.8846875 25.16179687 -18.984375 25.27734375 C-22.79755557 24.92664968 -24.30139316 23.64521713 -27 21 C-28.13624119 18.72751762 -28.26446843 17.21697236 -28.375 14.6875 C-28.42398437 13.92824219 -28.47296875 13.16898437 -28.5234375 12.38671875 C-27.69194653 8.59536814 -26.08280957 7.33604204 -23 5 C-19.50470496 3.71507197 -15.95471827 2.94063666 -12.3125 2.1875 C-10.86907227 1.86362305 -10.86907227 1.86362305 -9.39648438 1.53320312 C-2.46056548 0 -2.46056548 0 0 0 Z " fill="#292526" transform="translate(53,369)"/>
<path d="M0 0 C0 7.26 0 14.52 0 22 C-15.28471894 26.31568535 -15.28471894 26.31568535 -23 25 C-26.1875 23.0625 -26.1875 23.0625 -28 20 C-28.89920101 15.47947129 -28.82110407 12.31415473 -26.34765625 8.35546875 C-23.58843173 5.58706212 -21.62163214 4.84620935 -17.875 3.8125 C-16.73289062 3.49410156 -15.59078125 3.17570312 -14.4140625 2.84765625 C-2.94470046 0 -2.94470046 0 0 0 Z " fill="#292526" transform="translate(53,341)"/>
<path d="M0 0 C3.22393408 2.78826731 5.08641684 5.91762256 6.3125 10 C6.37782708 12.33241866 6.38854654 14.66790623 6.3125 17 C1.91861864 18.00871032 -2.4778952 19.00544344 -6.875 20 C-8.12087891 20.28617188 -9.36675781 20.57234375 -10.65039062 20.8671875 C-11.85244141 21.13789063 -13.05449219 21.40859375 -14.29296875 21.6875 C-15.39793701 21.93886719 -16.50290527 22.19023437 -17.64135742 22.44921875 C-20.4103135 22.94988116 -22.88381111 23.10950127 -25.6875 23 C-26.20995491 16.86115478 -24.95524902 12.25515193 -21.6875 7 C-15.87261169 0.5237026 -8.70858089 -3.24040219 0 0 Z " fill="#F9B529" transform="translate(247.6875,207)"/>
<path d="M0 0 C0 8.58 0 17.16 0 26 C-1.32 25.67 -2.64 25.34 -4 25 C-3.34 25 -2.68 25 -2 25 C-2 17.41 -2 9.82 -2 2 C-2.99 1.67 -3.98 1.34 -5 1 C-3 0 -3 0 0 0 Z " fill="#473B26" transform="translate(332,169)"/>
<path d="M0 0 C0.66 0.33 1.32 0.66 2 1 C1.195625 1.66 0.39125 2.32 -0.4375 3 C-3.75148924 6.87979228 -3.74577025 9.00014825 -4 14 C-4.33 14 -4.66 14 -5 14 C-5.78774617 5.96498906 -5.78774617 5.96498906 -2.5 1.9375 C-1.2625 0.9784375 -1.2625 0.9784375 0 0 Z " fill="#171B26" transform="translate(30,402)"/>
</svg>
