<svg width="86" height="42" viewBox="0 0 86 42" fill="none" xmlns="http://www.w3.org/2000/svg">
<g clip-path="url(#clip0_5402_6630)">
<path d="M3.36338 36.6292L3.24327 37.7758C3.18321 38.2586 3.54355 38.7413 4.02399 38.8017H40.7181C41.2586 38.8017 41.679 38.3792 41.679 37.8965C41.679 37.8965 41.679 37.8361 41.679 37.7758L41.5589 36.6292C41.4989 35.7241 42.0994 34.9396 43.0003 34.8792C43.841 34.7586 44.6818 35.4223 44.7419 36.2672L44.862 37.3534C45.1623 39.8275 43.781 41.9396 41.2586 41.9396H3.6036C1.14131 41.9396 -0.239972 39.7672 0.0603073 37.293L0.180419 36.2068C0.240475 35.362 1.0212 34.6982 1.92204 34.8189C2.82288 34.9396 3.42344 35.7241 3.36338 36.5689" fill="#FF0000"/>
<path d="M37.1746 28.0603C38.8561 28.1206 40.2374 26.8534 40.3575 25.2241C40.3575 25.2241 40.3575 25.1034 40.3575 25.043C40.3575 23.293 38.736 22.1465 36.9344 22.1465H33.331C32.4902 22.1465 31.8296 21.4827 31.8296 20.6379C31.8296 19.793 32.4902 19.1292 33.331 19.1292H35.7332C37.3547 19.0689 38.6159 18.1034 38.676 16.5344C38.736 14.9051 37.3547 13.6379 35.6131 13.6379H29.7877V27.9999H37.1145M41.5587 16.5948C41.5587 17.862 41.0782 19.0689 40.1774 19.9741L40.0573 20.0948H40.1774C41.979 21.181 43.1201 23.0517 43.1802 25.1034C43.1802 28.4223 40.5978 31.1379 37.2947 31.1982H28.2863C27.4455 31.1982 26.7249 30.4741 26.7249 29.5689V12.3706C26.7249 11.5258 27.3855 10.8017 28.2863 10.7413H35.6131C38.7961 10.681 41.4385 13.1551 41.5587 16.3534V16.5344" fill="white"/>
<path d="M13.0922 25.2843V25.405L13.1523 25.2843C13.5727 24.1378 14.0531 22.8705 14.5936 21.5429C15.1341 20.2154 15.6746 18.7067 16.2151 17.3791C16.7556 16.0516 17.2961 14.8447 17.7766 13.8188C18.0769 13.0343 18.4973 12.3102 18.9777 11.6464C19.4582 11.0429 20.1788 10.7412 20.8995 10.7412H21.2598C21.6802 10.7412 22.1006 10.8619 22.4009 11.1033C22.6411 11.2843 22.8213 11.586 22.8813 11.9481L25.1635 29.7498C25.1635 30.1722 25.0433 30.5343 24.7431 30.836C24.4428 31.0774 24.0224 31.1981 23.6621 31.1981C23.2417 31.1981 22.8213 31.0774 22.521 30.836C22.2207 30.655 22.0406 30.2929 21.9805 29.9309C21.9204 29.3274 21.8604 28.6636 21.7403 27.9395C21.6202 27.2154 21.2598 24.1378 21.1998 23.3533C21.1397 22.5688 20.4791 17.4998 20.2389 15.6895V15.5085L19.5182 17.0774C19.278 17.6205 18.9777 18.224 18.7375 19.0085C18.4973 19.7929 18.1369 20.5171 17.8366 21.3619C17.5364 22.2067 16.095 26.2498 16.095 26.2498C15.9749 26.6119 15.7347 27.336 15.4945 28.0602C15.2542 28.7843 15.0741 29.3878 15.014 29.4481C14.4735 30.474 13.2724 30.836 12.2514 30.3533C11.8311 30.1722 11.5308 29.8102 11.3506 29.4481C11.2906 29.3274 11.1104 28.724 10.8702 28.0602C10.6299 27.3964 10.3897 26.6722 10.2696 26.2498C10.2696 26.2498 8.82826 22.2067 8.52798 21.3619C8.22771 20.5171 7.92743 19.7326 7.62715 19.0085C7.32687 18.2843 7.08664 17.6205 6.78637 17.0774L6.06569 15.5688V15.7498C5.82547 17.5602 5.22491 22.6291 5.1048 23.4136C4.98469 24.1981 4.62435 27.2757 4.5643 27.9998C4.50424 28.724 4.44419 29.3878 4.32407 29.9912C4.32407 30.3533 4.08385 30.655 3.78357 30.8964C3.42324 31.1378 3.0629 31.2585 2.64251 31.2585C2.22212 31.2585 1.86178 31.1378 1.5615 30.8964C1.32128 30.5947 1.14111 30.2326 1.14111 29.8102L3.42324 12.0085C3.42324 11.7067 3.66346 11.405 3.90368 11.224C4.20396 10.9222 4.62435 10.8016 5.04474 10.8016H5.40508C6.12575 10.8016 6.84642 11.1033 7.32687 11.7067C7.80731 12.3705 8.22771 13.0947 8.52798 13.8791C9.00843 14.905 9.54893 16.1119 10.0894 17.4395C10.6299 18.7671 11.1704 20.155 11.7109 21.6033C12.2514 22.9912 12.7319 24.1981 13.1523 25.3447" fill="white"/>
<path d="M8.58801 0H36.3939C38.9763 0 40.2975 1.99138 40.5978 4.58621L40.7179 5.43103C40.838 6.33621 40.1774 7.12069 39.2766 7.24138C38.3757 7.30172 37.6551 6.63793 37.5349 5.7931L37.4148 5.00862C37.2947 4.0431 36.8743 3.25862 35.9134 3.25862H9.06846C8.04751 3.25862 7.62712 4.0431 7.50701 5.00862L7.3869 5.7931C7.32684 6.69828 6.54611 7.30172 5.64528 7.24138C4.74444 7.12069 4.08382 6.33621 4.20393 5.43103L4.32405 4.58621C4.68438 1.93103 6.00561 0 8.58801 0Z" fill="#FF0000"/>
<path d="M58.5546 18.7669C58.3744 19.491 58.1342 20.2755 57.954 21.1807C57.7739 22.0858 57.5336 22.8703 57.3535 23.5945C57.1733 24.3186 56.9331 25.0427 56.7529 25.6462C56.6328 26.0686 56.5127 26.491 56.2725 26.8531C56.0322 27.2151 55.6119 27.4565 55.1314 27.3962C54.9512 27.3962 54.711 27.3962 54.5309 27.2755C54.2906 27.2151 54.0504 27.0341 53.9303 26.7324C53.7501 26.31 53.57 25.8876 53.4498 25.4651C53.2697 24.8617 53.0895 24.1376 52.8493 23.2927C52.6091 22.4479 52.4289 21.6031 52.2487 20.6979C52.0686 19.7927 51.8283 18.9479 51.7082 18.1634C51.5881 17.3789 51.4079 16.7151 51.2878 16.172C51.1677 15.6289 51.1077 15.2669 51.1077 15.2065V15.0858C51.1077 14.7841 51.2278 14.6031 51.3479 14.422C51.5281 14.3014 51.7683 14.1807 52.0085 14.1807C52.2487 14.1807 52.4289 14.1807 52.6091 14.3617C52.7892 14.4824 52.9093 14.6634 52.9093 14.9048C52.9093 14.9048 52.9093 15.1462 53.0295 15.5083C53.1496 15.8703 53.2096 16.3531 53.3297 16.8962C53.4498 17.4393 53.57 18.1031 53.6901 18.8272C53.8102 19.5514 53.9903 20.2755 54.1705 20.9996C54.3507 21.7238 54.4708 22.3876 54.651 23.1117C54.8311 23.8358 54.9512 24.3789 55.0714 24.8617C55.1915 24.3789 55.3716 23.8962 55.4917 23.2927C55.6119 22.6893 55.8521 22.0858 55.9722 21.4824C56.0923 20.8789 56.2725 20.2151 56.4526 19.6117C56.6328 19.0083 56.7529 18.4048 56.873 17.8617C56.9931 17.3186 57.1133 16.8358 57.2334 16.4134C57.3535 15.991 57.4135 15.6893 57.4736 15.5083C57.5336 15.2669 57.6538 15.0858 57.8339 14.9048C58.0141 14.7238 58.2543 14.6634 58.4945 14.6031C58.7348 14.6031 59.035 14.6634 59.2152 14.8445C59.3954 15.0255 59.5155 15.2065 59.5755 15.4479C59.7557 16.1117 59.8758 16.8358 60.056 17.6807C60.2362 18.5255 60.4163 19.31 60.5965 20.1548C60.7767 20.9996 61.0169 21.8445 61.1971 22.6289C61.3772 23.4134 61.6174 24.1376 61.7976 24.741C61.9177 24.2583 62.0979 23.6548 62.218 22.991C62.3381 22.3272 62.5183 21.6031 62.6985 20.8789C62.8786 20.1548 62.9987 19.4307 63.1789 18.7669C63.3591 18.1031 63.4792 17.4393 63.5993 16.8962C63.7194 16.3531 63.8395 15.8703 63.8996 15.5083C63.9596 15.1462 64.0197 14.9651 64.0197 14.9651C64.0197 14.7841 64.1998 14.5427 64.32 14.422C64.5001 14.3014 64.6803 14.241 64.9205 14.241C65.1607 14.241 65.401 14.3014 65.5811 14.4824C65.7613 14.6031 65.8214 14.8445 65.8214 15.0255C65.8214 15.1462 65.8214 15.2065 65.8214 15.2669C65.8214 15.3876 65.7613 15.6893 65.6412 16.2324C65.5211 16.7755 65.401 17.4393 65.2208 18.2238C65.0406 19.0083 64.8605 19.8531 64.6803 20.7583C64.5001 21.6634 64.2599 22.5083 64.0797 23.3531C63.8996 24.1979 63.7194 24.8617 63.4792 25.5255C63.3591 25.9479 63.239 26.3703 62.9987 26.7927C62.8786 27.0341 62.6384 27.2151 62.3982 27.3358C62.218 27.3962 61.9778 27.4565 61.7976 27.4565C61.7376 27.4565 61.6174 27.4565 61.5574 27.4565C61.4373 27.4565 61.3172 27.4565 61.1971 27.3962C61.0769 27.3962 60.9568 27.2755 60.8367 27.2151C60.7166 27.0945 60.5965 26.9738 60.5364 26.8531C60.3563 26.4307 60.2362 26.0083 60.116 25.5858C59.9359 24.9824 59.7557 24.3186 59.5755 23.5945C59.3954 22.8703 59.2152 22.0255 58.975 21.241C58.7348 20.4565 58.6147 19.672 58.4345 18.9479" fill="white"/>
<path d="M69.1844 23.5949C69.0042 24.2587 68.8241 24.8621 68.6439 25.4052C68.4637 25.9483 68.3436 26.4311 68.2235 26.7931C68.1635 27.2759 67.683 27.638 67.2026 27.5776C66.7221 27.5173 66.3618 27.0345 66.4218 26.5518C66.4218 26.4914 66.4218 26.3707 66.4218 26.3104L66.6621 25.4656C66.7822 24.9828 67.0224 24.3793 67.2026 23.7155C67.3827 23.0518 67.683 22.2673 67.9833 21.4224C68.2836 20.5776 68.5238 19.7328 68.8241 18.9483C69.1243 18.1638 69.4246 17.3793 69.7249 16.6552C69.9651 16.0518 70.2054 15.5087 70.5657 14.9052C70.6257 14.7242 70.8059 14.5431 70.9861 14.4224C71.2263 14.3018 71.4665 14.3018 71.7067 14.3018C71.947 14.3018 72.2472 14.3018 72.4875 14.4224C72.6676 14.5431 72.8478 14.7242 72.9079 14.9052C73.088 15.3276 73.3283 15.8707 73.5685 16.5345C73.8087 17.1983 74.109 17.9828 74.4093 18.7673C74.7095 19.5518 75.0098 20.3966 75.25 21.1811C75.4903 21.9655 75.7905 22.75 76.0308 23.4742C76.271 24.1983 76.4512 24.8018 76.6313 25.2845C76.8115 25.7673 76.9316 26.1293 76.9316 26.25C76.9316 26.3104 76.9316 26.4311 76.9316 26.4914C76.9316 26.7328 76.8716 26.9138 76.6914 27.0949C76.5112 27.2759 76.271 27.3362 75.9707 27.3362C75.7905 27.3362 75.6104 27.3362 75.4302 27.2155C75.3101 27.0949 75.19 26.9742 75.19 26.7931C75.0699 26.4311 74.8897 26.0087 74.7095 25.4052C74.5294 24.8018 74.3492 24.2587 74.109 23.5949H69.0643M73.6886 21.8449C73.3883 20.9397 73.1481 20.1552 72.9079 19.4311C72.6676 18.7069 72.4274 18.0431 72.1271 17.319C72.0671 17.1983 72.007 17.0173 71.947 16.7759C71.8869 16.5345 71.8269 16.4742 71.8269 16.4138C71.8269 16.5345 71.7067 16.6552 71.7067 16.7156C71.6467 16.9569 71.5866 17.0776 71.4665 17.2587C71.2263 17.9224 70.926 18.6466 70.6858 19.3707C70.4456 20.0949 70.1453 20.9397 69.9051 21.7845H73.7486L73.6886 21.8449Z" fill="white"/>
<path d="M80.535 22.2673C80.4749 22.2069 80.4149 22.1466 80.3548 22.0259L80.1747 21.7242C79.9945 21.4224 79.8143 21.1207 79.5741 20.7587C79.3339 20.3966 79.0937 19.9742 78.9135 19.5518C78.7333 19.1293 78.4931 18.6466 78.2529 18.2242C78.0127 17.8018 77.8325 17.3793 77.7124 17.0173C77.5923 16.6552 77.4121 16.2931 77.292 16.0518C77.1719 15.8707 77.1118 15.6293 77.0518 15.4483C77.0518 15.4483 77.0518 15.3276 77.0518 15.2673V15.1466C77.0518 14.9052 77.1118 14.7242 77.292 14.5431C77.4721 14.3621 77.7124 14.3018 78.0126 14.3018C78.2529 14.3018 78.433 14.3018 78.6132 14.4828C78.7333 14.6035 78.7934 14.7242 78.8534 14.9052L79.0336 15.3276C79.1537 15.569 79.2738 15.8707 79.3939 16.1724C79.514 16.4742 79.6942 16.8966 79.9344 17.319C80.1747 17.7414 80.2948 18.1035 80.535 18.5259L81.0755 19.6724C81.2557 19.9742 81.3758 20.2759 81.616 20.5776C81.9163 20.0949 82.2166 19.6121 82.4568 19.069C82.7571 18.4656 83.0573 17.8621 83.2976 17.319C83.5378 16.7759 83.778 16.2328 84.0182 15.8104L84.3786 14.9656C84.3786 14.8449 84.4987 14.6638 84.6188 14.5431C84.799 14.3621 84.9791 14.3018 85.2194 14.3621C85.4596 14.3621 85.7599 14.4224 85.94 14.6035C86.1202 14.7845 86.1802 14.9656 86.1802 15.2069V15.3276V15.5087L85.88 16.1121C85.7599 16.4138 85.6397 16.7155 85.4596 17.0776C85.2794 17.4397 85.0992 17.8621 84.9191 18.2845C84.7389 18.7069 84.4987 19.1293 84.2585 19.6121C84.0182 20.0949 83.8381 20.4569 83.5978 20.819C83.3576 21.1811 83.1775 21.5431 82.9973 21.8449C82.8772 22.0259 82.7571 22.1466 82.637 22.3276V26.5518C82.637 26.7931 82.5769 27.0345 82.3967 27.2155C82.0364 27.5776 81.4358 27.5776 81.1356 27.2155C80.9554 27.0345 80.8353 26.7931 80.8353 26.4914V22.2673" fill="white"/>
</g>
<defs>
<clipPath id="clip0_5402_6630">
<rect width="86" height="42" fill="white"/>
</clipPath>
</defs>
</svg>
