<svg width="112" height="35" viewBox="0 0 112 35" fill="none" xmlns="http://www.w3.org/2000/svg">
<g clip-path="url(#clip0_5402_6626)">
<path d="M37.273 0.672852C35.7599 0.672852 34.2925 1.01412 32.9143 1.65098C30.9462 2.56578 29.1608 4.09123 27.7034 6.11561C26.7567 7.42981 25.9461 8.95317 25.3116 10.6569C24.1151 13.873 24.1285 16.4816 25.3518 18.2007C26.0453 19.1724 27.4872 20.3333 30.4187 20.3366H30.4299C35.77 20.3366 39.7563 16.9017 42.2808 10.1272C42.9476 8.33476 43.8274 4.98953 42.2195 2.73207C41.2483 1.36753 39.5868 0.67504 37.273 0.672852ZM69.4944 0.672852C67.9823 0.672852 66.5138 1.01412 65.1367 1.65098C63.1675 2.56578 61.3835 4.09123 59.926 6.11561C58.9782 7.42981 58.1685 8.95317 57.534 10.6569C56.3364 13.873 56.3509 16.4816 57.5753 18.2007C58.2677 19.1724 59.7084 20.3333 62.6422 20.3366H62.6513C67.9925 20.3366 71.9798 16.9017 74.5021 10.1272C75.1712 8.33476 76.0487 4.98953 74.4419 2.73207C73.4696 1.36753 71.8081 0.67504 69.4944 0.672852ZM20.1232 0.945226C18.3658 0.945226 16.6587 0.945091 15.1288 1.70667C13.6 2.46827 12.2496 3.99261 11.2103 7.04121C10.9851 7.69667 10.866 8.2614 10.8504 8.75163C10.8348 9.24295 10.9218 9.6609 11.1113 10.0242C11.3455 10.4674 11.7246 10.8843 12.1985 11.2356C12.6735 11.5879 13.241 11.8736 13.8531 12.0564C13.8766 12.0629 14.1978 12.1526 14.5881 12.262C14.9762 12.3715 15.4299 12.5026 15.7176 12.588C15.886 12.6383 16.0709 12.704 16.2382 12.8036C16.4066 12.901 16.5572 13.0322 16.652 13.2139C16.7144 13.3343 16.7479 13.4667 16.7513 13.6079C16.7557 13.7501 16.7311 13.9035 16.6742 14.0654C16.5315 14.479 16.3151 14.746 15.9026 14.9091C15.4922 15.0721 14.8868 15.1244 13.968 15.131H2.49826L0.685181 20.019H12.9621C14.1174 20.019 16.2293 20.0192 18.2587 19.1722C20.2881 18.3264 22.2353 16.6357 23.0593 13.2512C23.3693 11.9797 23.2733 10.9434 22.766 10.1293C22.2564 9.31622 21.3353 8.72544 19.9939 8.34792C19.9939 8.34792 19.694 8.26233 19.3406 8.16275C18.9893 8.06317 18.5823 7.94947 18.3749 7.89038C18.0314 7.79408 17.7671 7.59928 17.611 7.35088C17.456 7.10358 17.4091 6.80264 17.4972 6.49515C17.5898 6.17563 17.8128 5.92065 18.134 5.74448C18.4574 5.56939 18.8811 5.47315 19.3762 5.47315H26.5126C26.5628 5.40203 26.6085 5.32444 26.6587 5.25331C27.9622 3.44341 29.5401 1.9793 31.2685 0.945226H20.1232ZM52.1995 0.945226C49.0237 0.945226 46.6597 2.52194 45.5435 5.47315L40.1487 20.019H46.0587L48.8308 12.542L54.0538 12.5454L55.54 8.54045L50.3339 8.53704L51.1725 6.21831C51.3464 5.80249 51.7645 5.4721 52.3756 5.4721C52.7157 5.4721 56.5503 5.47318 58.534 5.4742C58.5853 5.40198 58.631 5.32443 58.6812 5.25331C59.9847 3.4434 61.8303 1.9793 63.5586 0.945226H52.1995ZM79.617 0.955728L72.5394 20.0309H78.5509L81.1233 13.3166C81.2493 13.5934 82.767 20.0309 82.767 20.0309H89.0873C89.0873 20.0309 87.9377 15.3004 87.0925 13.3899C86.8751 12.8985 86.6485 12.3482 86.3452 11.8875C88.1305 11.2364 90.7174 9.83901 91.789 7.00706C92.4469 5.2661 92.4091 3.85878 91.6777 2.82689C90.7912 1.57397 88.987 0.959012 86.1603 0.955728H79.617ZM91.9472 0.955999C92.3274 1.25145 92.6552 1.58835 92.9284 1.97353C93.6276 2.96274 93.8951 4.13821 93.7356 5.48524H97.3152L91.9204 20.0356H97.3107L102.709 5.48524H109.634L111.315 0.955999H91.9472ZM83.5777 4.894H84.5702C86.3844 4.89521 87.0611 5.41598 86.4467 7.04095C85.8702 8.56635 84.8332 9.50861 82.8617 9.50861H82.854L81.8337 9.50753L83.5777 4.894ZM35.8547 4.98856H35.8558C37.7024 4.99075 38.1251 6.04132 36.5038 10.3943H36.5035C34.8376 14.8687 33.629 15.9946 31.8092 15.9946H31.8057C30.0327 15.9936 29.4107 14.8926 31.0699 10.4389C32.3088 7.11457 33.9134 4.98856 35.8547 4.98856ZM68.0761 4.98856H68.0782C69.9237 4.99075 70.3473 6.04132 68.7249 10.3943C67.06 14.8687 65.8503 15.9946 64.0316 15.9946H64.0273C62.2532 15.9936 61.6342 14.8926 63.2923 10.4389C64.53 7.11457 66.1358 4.98856 68.0761 4.98856Z" fill="#EE7F00"/>
<path d="M6.52988 22.04C6.15187 22.04 5.86858 22.1078 5.67902 22.2402C5.49057 22.3759 5.33217 22.6156 5.20393 22.9625C5.08016 23.2951 5.06133 23.5259 5.14719 23.6572C5.23305 23.7896 5.46592 23.8553 5.84951 23.8553C6.23198 23.8553 6.5176 23.7875 6.70493 23.6496C6.89226 23.5128 7.04946 23.2742 7.17546 22.9328C7.30035 22.5958 7.3215 22.3638 7.23675 22.2336C7.15424 22.1045 6.91793 22.04 6.52988 22.04ZM9.78909 22.04C9.4055 22.04 9.12123 22.1078 8.93501 22.2402C8.74768 22.3759 8.59057 22.6156 8.46233 22.9625C8.33968 23.2951 8.3196 23.5259 8.40211 23.6572C8.48574 23.7896 8.71764 23.8553 9.10122 23.8553C9.48369 23.8553 9.76917 23.7875 9.95985 23.6496C10.1494 23.5128 10.3075 23.2742 10.4347 22.9328C10.5596 22.5958 10.5786 22.3638 10.4927 22.2336C10.4058 22.1045 10.1716 22.04 9.78909 22.04ZM70.6313 24.5214C70.1875 24.5214 69.7484 24.5773 69.3113 24.6889C68.8742 24.8016 68.4681 24.9712 68.0934 25.1977C67.7177 25.4253 67.3822 25.7098 67.0823 26.0534C66.7834 26.3981 66.5502 26.7976 66.3818 27.2506C66.2346 27.6467 66.169 27.9847 66.1835 28.2681C66.1969 28.5505 66.2613 28.7968 66.3762 29.0036C66.4899 29.2115 66.6416 29.3887 66.8312 29.5376C67.0196 29.6864 67.2203 29.8198 67.4356 29.9357C67.6508 30.0528 67.8604 30.1656 68.0667 30.2696C68.2707 30.3746 68.4471 30.4862 68.5932 30.6066C68.7415 30.7258 68.8449 30.8626 68.9074 31.0158C68.9698 31.1701 68.9611 31.3539 68.882 31.5684C68.8128 31.7533 68.7157 31.922 68.5897 32.073C68.4637 32.2251 68.3154 32.3521 68.147 32.4538C67.9764 32.5567 67.7879 32.6365 67.5771 32.6923C67.3675 32.7481 67.1434 32.7766 66.9048 32.7766C66.5413 32.7766 66.2369 32.736 65.9916 32.655C65.7463 32.5751 65.5412 32.4856 65.3784 32.3882C65.2167 32.2908 65.0862 32.202 64.9903 32.121C64.8922 32.0412 64.8084 32.0007 64.7382 32.0007C64.6891 32.0007 64.6413 32.0138 64.5934 32.0412C64.5465 32.0675 64.4996 32.1122 64.4539 32.1757C64.4082 32.2391 64.3613 32.3223 64.3134 32.4252C64.2654 32.527 64.212 32.6551 64.1573 32.805C64.0737 33.0304 64.0234 33.2021 64.0067 33.3214C63.9888 33.4407 64.0023 33.5327 64.0436 33.5961C64.0826 33.6596 64.1629 33.7328 64.2789 33.816C64.3937 33.898 64.5475 33.9779 64.7382 34.0534C64.9288 34.1289 65.1574 34.1936 65.4228 34.2472C65.6893 34.3009 65.9893 34.3271 66.3227 34.3271C66.8144 34.3271 67.3008 34.2636 67.7803 34.1377C68.2598 34.0108 68.708 33.8215 69.1239 33.5699C69.5409 33.3193 69.9121 33.0062 70.2411 32.6298C70.5689 32.2545 70.8255 31.8178 71.0106 31.3199C71.1511 30.9391 71.2146 30.6088 71.199 30.3287C71.1834 30.0485 71.1175 29.8035 71.0004 29.5967C70.8833 29.3887 70.7285 29.2115 70.5344 29.0616C70.3415 28.9139 70.1362 28.7803 69.921 28.6632C69.7069 28.5461 69.4941 28.4357 69.2845 28.3307C69.0749 28.2256 68.8942 28.1127 68.7425 27.9934C68.5897 27.8741 68.4837 27.7374 68.4235 27.5842C68.3644 27.431 68.3732 27.2482 68.4513 27.0381C68.5037 26.897 68.5798 26.7635 68.6801 26.6355C68.7783 26.5085 68.8975 26.4003 69.038 26.3106C69.1785 26.2208 69.3368 26.1498 69.5152 26.0983C69.6936 26.0469 69.89 26.0216 70.104 26.0216C70.3772 26.0216 70.617 26.0534 70.8211 26.1201C71.0252 26.1858 71.1989 26.2579 71.3428 26.34C71.4866 26.4199 71.6059 26.4943 71.6995 26.5632C71.7943 26.6322 71.8692 26.6651 71.9228 26.6651C71.9785 26.6651 72.0265 26.6508 72.07 26.6213C72.1134 26.5917 72.1558 26.5458 72.1971 26.4823C72.2372 26.4189 72.2783 26.3378 72.3229 26.2404C72.3664 26.1441 72.4156 26.0239 72.468 25.8827C72.5148 25.7558 72.5515 25.6486 72.5772 25.5644C72.605 25.4779 72.6218 25.4077 72.6307 25.3519C72.6385 25.2961 72.6408 25.2503 72.6363 25.2163C72.6307 25.1824 72.6129 25.1397 72.5817 25.0916C72.5505 25.0434 72.4712 24.9821 72.344 24.9088C72.2158 24.8355 72.0642 24.7698 71.8869 24.7107C71.7107 24.6527 71.5135 24.6068 71.2983 24.5728C71.0809 24.5378 70.8588 24.5214 70.6313 24.5214ZM101.601 24.5277C100.841 24.5277 100.109 24.6425 99.4045 24.8723C98.6998 25.1021 98.0497 25.4313 97.4509 25.8635C96.8543 26.2958 96.3202 26.8199 95.853 27.4371C95.3858 28.0554 95.0089 28.7515 94.7201 29.5273C94.4424 30.278 94.3042 30.9509 94.3097 31.5429C94.312 32.136 94.4492 32.6394 94.7179 33.0508C94.9878 33.4634 95.3868 33.7773 95.9165 33.9951C96.4439 34.2118 97.0939 34.32 97.8644 34.32C98.1287 34.32 98.3954 34.3081 98.6653 34.284C98.9351 34.2588 99.207 34.2226 99.4813 34.1745C99.7568 34.1252 100.025 34.0672 100.289 33.9982C100.553 33.9293 100.777 33.865 100.962 33.8015C101.147 33.737 101.287 33.6504 101.38 33.541C101.472 33.4315 101.547 33.3036 101.6 33.157L102.998 29.3884C103.034 29.2899 103.054 29.2033 103.056 29.1278C103.06 29.0523 103.049 28.9879 103.021 28.9342C102.993 28.8806 102.954 28.8399 102.901 28.8137C102.849 28.7863 102.783 28.7722 102.704 28.7722H99.4447C99.4001 28.7722 99.3554 28.7863 99.3108 28.8137C99.2662 28.8399 99.2217 28.8815 99.1749 28.9384C99.1303 28.9942 99.0833 29.0676 99.0365 29.1617C98.9897 29.2536 98.9405 29.3685 98.8904 29.5042C98.7922 29.769 98.7476 29.955 98.7565 30.0644C98.7666 30.175 98.8156 30.2297 98.9048 30.2297H100.733L99.9173 32.4249C99.6977 32.5223 99.4713 32.5955 99.2394 32.6448C99.0085 32.6929 98.7824 32.7181 98.5638 32.7181C98.1156 32.7181 97.7328 32.647 97.415 32.5058C97.0973 32.3636 96.8577 32.1545 96.6983 31.8755C96.5377 31.5986 96.4607 31.2528 96.4662 30.8414C96.4729 30.4288 96.5765 29.9507 96.7772 29.4102C96.9601 28.9167 97.1999 28.4669 97.4953 28.0599C97.7897 27.6528 98.1254 27.3037 98.5012 27.0126C98.8781 26.7227 99.2851 26.4984 99.7211 26.3397C100.158 26.1821 100.61 26.1023 101.077 26.1023C101.514 26.1023 101.882 26.1461 102.181 26.2336C102.477 26.3211 102.727 26.4174 102.929 26.5191C103.129 26.622 103.285 26.7171 103.397 26.8046C103.508 26.8922 103.596 26.936 103.662 26.936C103.705 26.936 103.749 26.924 103.79 26.9C103.832 26.8748 103.875 26.832 103.921 26.7718C103.965 26.7105 104.012 26.6285 104.062 26.5257C104.113 26.4239 104.165 26.3023 104.217 26.1601C104.307 25.916 104.361 25.7324 104.377 25.6077C104.395 25.484 104.381 25.3877 104.34 25.3188C104.297 25.2498 104.209 25.1699 104.076 25.0769C103.941 24.985 103.759 24.8975 103.533 24.8176C103.307 24.7367 103.033 24.6688 102.711 24.613C102.388 24.5561 102.018 24.5277 101.601 24.5277ZM40.6344 24.6445C40.3802 24.6445 40.1807 24.6511 40.0346 24.6642C39.8886 24.6763 39.7748 24.7091 39.6923 24.7627C39.6098 24.8164 39.553 24.8929 39.5218 24.9936C39.4895 25.0932 39.4638 25.2311 39.4426 25.4073L38.5706 33.6689C38.5561 33.7871 38.5594 33.8801 38.5773 33.9512C38.5962 34.0213 38.6485 34.0748 38.7344 34.112C38.8202 34.1481 38.9464 34.1732 39.1136 34.1853C39.2809 34.1973 39.5085 34.2029 39.7961 34.2029C40.0705 34.2029 40.2923 34.1973 40.4629 34.1853C40.6335 34.1732 40.7761 34.1472 40.8876 34.1078C40.998 34.0695 41.0895 34.0147 41.1609 33.9436C41.2312 33.8736 41.3004 33.7816 41.3673 33.6689L45.0547 27.668H45.0692L44.388 33.6689C44.369 33.7871 44.369 33.8801 44.388 33.9512C44.4058 34.0213 44.4582 34.0748 44.544 34.112C44.6299 34.1481 44.7558 34.1732 44.923 34.1853C45.0903 34.1973 45.3156 34.2029 45.5989 34.2029C45.852 34.2029 46.0637 34.1973 46.2321 34.1853C46.4005 34.1732 46.5443 34.1481 46.6614 34.112C46.7796 34.0748 46.8789 34.0213 46.9559 33.9512C47.035 33.8801 47.1119 33.7871 47.1844 33.6689L52.4556 25.4291C52.5671 25.2485 52.6461 25.1052 52.693 25.0012C52.7387 24.8951 52.7441 24.8164 52.7096 24.7627C52.6739 24.7091 52.5994 24.6763 52.4823 24.6642C52.3641 24.6511 52.1958 24.6445 51.9784 24.6445C51.7442 24.6445 51.56 24.6511 51.4262 24.6642C51.2924 24.6763 51.1843 24.6982 51.1029 24.7299C51.0226 24.7616 50.958 24.8054 50.9134 24.8612C50.8676 24.9181 50.822 24.9847 50.7785 25.0624L46.4039 32.2933H46.3895L47.2404 25.0911C47.256 24.9948 47.258 24.9159 47.2457 24.8568C47.2323 24.7999 47.1935 24.754 47.1277 24.7223C47.0619 24.6906 46.9614 24.6696 46.8231 24.6598C46.6837 24.6499 46.4964 24.6445 46.2578 24.6445C46.0337 24.6445 45.852 24.6511 45.7137 24.6642C45.5743 24.6763 45.4605 24.6982 45.3724 24.7299C45.2832 24.7616 45.2118 24.8064 45.1583 24.8644C45.1037 24.9235 45.0502 25.0002 44.9956 25.0911L40.5654 32.2933H40.5576L41.5546 25.0406C41.5747 24.9476 41.5811 24.8764 41.5744 24.825C41.5689 24.7736 41.5367 24.7344 41.4765 24.7081C41.4163 24.6807 41.3204 24.6643 41.1866 24.6566C41.0517 24.649 40.8686 24.6445 40.6344 24.6445ZM63.9074 24.6451C63.7178 24.6451 63.5581 24.6526 63.4288 24.6669C63.2994 24.6822 63.1913 24.7019 63.1055 24.726C63.0196 24.75 62.9529 24.7819 62.9061 24.8213C62.8592 24.8607 62.8268 24.9045 62.8078 24.9526L59.4916 33.8958C59.4738 33.9451 59.4727 33.9891 59.4916 34.0285C59.5084 34.0668 59.5495 34.0984 59.6153 34.1225C59.6822 34.1477 59.7748 34.1674 59.8963 34.1816C60.0167 34.1958 60.1728 34.2034 60.3612 34.2034C60.5553 34.2034 60.7171 34.1958 60.8476 34.1816C60.9769 34.1674 61.0838 34.1477 61.1663 34.1225C61.2511 34.0984 61.3159 34.0668 61.3639 34.0285C61.4096 33.9891 61.4418 33.9451 61.4597 33.8958L64.777 24.9526C64.796 24.9045 64.7959 24.8607 64.7781 24.8213C64.7602 24.7819 64.7181 24.75 64.6523 24.726C64.5876 24.7019 64.495 24.6822 64.3768 24.6669C64.2575 24.6527 64.1003 24.6451 63.9074 24.6451ZM4.24386 24.6453C4.04984 24.6453 3.88827 24.6532 3.75781 24.6674C3.62846 24.6827 3.52007 24.7024 3.43421 24.7265C3.34835 24.7506 3.28258 24.7822 3.2391 24.8216C3.19449 24.8599 3.1633 24.9037 3.14435 24.9529L1.00901 30.713C0.784886 31.3181 0.676766 31.8457 0.685691 32.2965C0.695722 32.7484 0.809331 33.1247 1.03123 33.4267C1.25202 33.7298 1.57654 33.9553 2.00361 34.1041C2.42957 34.2529 2.94699 34.3274 3.55359 34.3274C4.20033 34.3274 4.80239 34.2441 5.36104 34.0789C5.9197 33.9126 6.42717 33.6721 6.88211 33.3548C7.33818 33.0385 7.73856 32.65 8.082 32.1904C8.42656 31.7319 8.70642 31.2131 8.92163 30.6321L11.0281 24.9529C11.047 24.9037 11.0469 24.8599 11.0313 24.8216C11.0168 24.7822 10.9766 24.7506 10.9108 24.7265C10.845 24.7024 10.7549 24.6827 10.6378 24.6674C10.5218 24.6532 10.3689 24.6453 10.1793 24.6453C9.99087 24.6453 9.83051 24.6532 9.69781 24.6674C9.56623 24.6827 9.45897 24.7024 9.37422 24.7265C9.29059 24.7506 9.22719 24.7822 9.18258 24.8216C9.13798 24.8599 9.10786 24.9037 9.0889 24.9529L6.97472 30.6541C6.85206 30.9857 6.69473 31.2822 6.5074 31.5437C6.31783 31.8053 6.10593 32.0239 5.87065 32.2012C5.63537 32.3795 5.37912 32.5142 5.10035 32.6083C4.82381 32.7002 4.53047 32.7472 4.22271 32.7472C3.9183 32.7472 3.66057 32.7025 3.44759 32.6117C3.23573 32.5209 3.07514 32.3862 2.96475 32.2056C2.85547 32.0251 2.80437 31.7975 2.81219 31.5206C2.82 31.246 2.89361 30.92 3.033 30.5435L5.10704 24.9529C5.12488 24.9037 5.12488 24.8599 5.10704 24.8216C5.0892 24.7822 5.04783 24.7506 4.98204 24.7265C4.91625 24.7024 4.82376 24.6827 4.70556 24.6674C4.58625 24.6532 4.43231 24.6453 4.24386 24.6453ZM76.5981 24.6456C76.4041 24.6456 76.2425 24.6532 76.112 24.6674C75.9827 24.6816 75.8746 24.7014 75.7887 24.7255C75.7029 24.7506 75.6369 24.7825 75.5923 24.8208C75.5477 24.8602 75.5175 24.9039 75.4986 24.9532L73.3633 30.7122C73.1391 31.3173 73.031 31.846 73.041 32.2968C73.0488 32.7487 73.1636 33.125 73.3844 33.427C73.6063 33.7301 73.9299 33.9556 74.3581 34.1044C74.7841 34.2532 75.3012 34.3276 75.9078 34.3276C76.5535 34.3276 77.1558 34.2444 77.7156 34.0792C78.2742 33.9128 78.7803 33.6721 79.2364 33.3548C79.6924 33.0374 80.0917 32.6503 80.4362 32.1907C80.7808 31.7322 81.0595 31.2123 81.2759 30.6323L83.3823 24.9532C83.4012 24.9039 83.4011 24.8602 83.3855 24.8208C83.3699 24.7825 83.3311 24.7506 83.2653 24.7255C83.1995 24.7014 83.1091 24.6816 82.9921 24.6674C82.8761 24.6532 82.7223 24.6456 82.5338 24.6456C82.3454 24.6456 82.1848 24.6532 82.0521 24.6674C81.9205 24.6816 81.8135 24.7014 81.7287 24.7255C81.6451 24.7506 81.5803 24.7825 81.5368 24.8208C81.4922 24.8602 81.4621 24.9039 81.4431 24.9532L79.329 30.6541C79.2052 30.9857 79.049 31.2822 78.8616 31.5438C78.6721 31.8053 78.4604 32.0231 78.2252 32.2014C77.9899 32.3798 77.7334 32.5145 77.4546 32.6075C77.1769 32.7005 76.8825 32.7475 76.5759 32.7475C76.2726 32.7475 76.0151 32.7017 75.8021 32.612C75.5902 32.5212 75.4286 32.3865 75.3182 32.2059C75.2089 32.0254 75.1575 31.7967 75.1664 31.5209C75.1731 31.2462 75.2479 30.9202 75.3872 30.5438L77.4602 24.9532C77.4792 24.9039 77.4781 24.8602 77.4602 24.8208C77.4435 24.7825 77.401 24.7506 77.3363 24.7255C77.2705 24.7014 77.178 24.6816 77.0598 24.6674C76.9405 24.6532 76.7866 24.6456 76.5981 24.6456ZM93.3671 24.6598C93.1875 24.6598 93.0392 24.6664 92.9188 24.6784C92.8006 24.6905 92.7015 24.7112 92.6201 24.7407C92.5398 24.7702 92.4773 24.8043 92.4338 24.8426C92.3892 24.882 92.3579 24.9257 92.3401 24.975L90.6908 29.4176C90.567 29.7546 90.4401 30.108 90.3097 30.4779C90.1792 30.8488 90.0577 31.2055 89.9473 31.5469H89.9392C89.9214 31.351 89.9038 31.1565 89.8804 30.9617C89.8581 30.7658 89.8356 30.5677 89.811 30.3652C89.7865 30.1617 89.7577 29.9604 89.7265 29.758C89.6941 29.5544 89.6629 29.3487 89.6317 29.1386L89.0362 25.6773C89.0128 25.4869 88.9792 25.3274 88.938 25.1982C88.8956 25.0691 88.8376 24.9685 88.764 24.8951C88.6882 24.8218 88.5923 24.768 88.4752 24.7362C88.3581 24.7045 88.2043 24.6892 88.0159 24.6892H86.9643C86.7658 24.6892 86.5764 24.7472 86.3969 24.861C86.2173 24.9759 86.0858 25.1478 86.001 25.3776L82.844 33.8887C82.8251 33.9369 82.8217 33.9817 82.8307 34.0211C82.8429 34.0594 82.8754 34.0923 82.9289 34.1186C82.9846 34.1459 83.0661 34.1668 83.1754 34.1821C83.2847 34.1964 83.4251 34.2039 83.5991 34.2039C83.7775 34.2039 83.9269 34.1964 84.0485 34.1821C84.1678 34.1668 84.266 34.1459 84.3429 34.1186C84.4198 34.0923 84.4787 34.0594 84.5222 34.0211C84.5624 33.9817 84.5927 33.9369 84.6105 33.8887L86.4493 28.934C86.5865 28.563 86.7157 28.203 86.8339 27.855C86.9544 27.5059 87.0691 27.1556 87.1795 26.8044H87.1939C87.2006 27.0922 87.2208 27.389 87.252 27.6943C87.2821 27.9985 87.3189 28.2829 87.3601 28.5466L88.1195 32.9739C88.154 33.2179 88.192 33.4172 88.2332 33.5704C88.2767 33.7236 88.3347 33.846 88.4072 33.9358C88.4819 34.0266 88.5745 34.0891 88.6882 34.123C88.8031 34.1581 88.947 34.1743 89.1221 34.1743H89.9561C90.0509 34.1743 90.149 34.1612 90.2516 34.1338C90.3531 34.1075 90.449 34.0639 90.5383 34.0059C90.6263 33.9468 90.7067 33.8735 90.7791 33.7871C90.8516 33.6985 90.9084 33.5988 90.9496 33.4861L94.1074 24.975C94.1252 24.9257 94.1298 24.882 94.1186 24.8426C94.1086 24.8043 94.0773 24.7702 94.026 24.7407C93.9747 24.7112 93.8945 24.6905 93.7841 24.6784C93.6748 24.6664 93.5354 24.6598 93.3671 24.6598ZM23.7389 24.6892C23.5738 24.6892 23.4188 24.7364 23.2705 24.8316C23.1233 24.9279 23.0108 25.082 22.9306 25.2965L19.8686 33.5515C19.7894 33.7671 19.7882 33.9215 19.8651 34.0167C19.9421 34.1119 20.0626 34.1601 20.2254 34.1601H25.0726C25.1183 34.1601 25.1641 34.1457 25.212 34.1183C25.2577 34.092 25.3058 34.0505 25.3515 33.9914C25.3994 33.9324 25.4451 33.8558 25.4941 33.7606C25.541 33.6654 25.5911 33.5471 25.6435 33.406C25.6959 33.2648 25.7327 33.1455 25.7572 33.0514C25.7795 32.9562 25.7895 32.8786 25.7861 32.8195C25.7839 32.7615 25.7671 32.7189 25.7404 32.6916C25.7136 32.6664 25.6768 32.6522 25.6322 32.6522H22.1578L23.1479 29.9809H26.064C26.1086 29.9809 26.1542 29.9691 26.201 29.9439C26.2467 29.9198 26.2926 29.8792 26.3383 29.8234C26.384 29.7675 26.4307 29.6934 26.4764 29.6004C26.5244 29.5073 26.5734 29.3901 26.6258 29.2489C26.6771 29.1121 26.714 28.9961 26.7363 28.9009C26.7597 28.8068 26.7686 28.7314 26.7641 28.6745C26.7608 28.6187 26.7452 28.576 26.7173 28.5497C26.6894 28.5235 26.6549 28.5093 26.6092 28.5093H23.6944L24.5507 26.1971H27.9964C28.0421 26.1971 28.0867 26.184 28.1313 26.1567C28.1759 26.1293 28.2215 26.0876 28.2684 26.0285C28.3152 25.9705 28.3609 25.8928 28.4089 25.7976C28.4568 25.7035 28.5059 25.5875 28.5571 25.4496C28.6118 25.3041 28.6496 25.1837 28.673 25.0874C28.6953 24.9933 28.7066 24.9147 28.7044 24.8534C28.701 24.7932 28.6878 24.7506 28.661 24.7265C28.6365 24.7024 28.6007 24.6892 28.5561 24.6892H23.7389ZM31.8313 24.6892C31.6674 24.6892 31.5115 24.7364 31.3643 24.8316C31.2171 24.9279 31.1033 25.082 31.0241 25.2965L27.835 33.8964C27.8172 33.9456 27.8149 33.9894 27.8305 34.0277C27.8461 34.0671 27.8862 34.0987 27.9531 34.1228C28.0177 34.1468 28.1115 34.1676 28.233 34.1819C28.3535 34.1961 28.5084 34.2037 28.6979 34.2037C28.8908 34.2037 29.0538 34.1961 29.1832 34.1819C29.3137 34.1676 29.4205 34.1468 29.503 34.1228C29.5867 34.0987 29.6524 34.0671 29.6992 34.0277C29.7449 33.9894 29.7785 33.9456 29.7964 33.8964L31.1344 30.2875H31.7468C31.9542 30.2875 32.1268 30.319 32.2628 30.3836C32.3977 30.4471 32.5039 30.5402 32.5797 30.6649C32.6555 30.7896 32.7077 30.944 32.739 31.1301C32.7702 31.315 32.7926 31.5271 32.8093 31.7667L32.8896 33.8809C32.8874 33.94 32.8939 33.9904 32.9073 34.0308C32.9229 34.0724 32.961 34.1075 33.0235 34.1338C33.0848 34.1612 33.176 34.1786 33.2965 34.1884C33.418 34.1983 33.582 34.2037 33.7916 34.2037C34.0403 34.2037 34.2389 34.1983 34.3861 34.1884C34.5344 34.1786 34.6491 34.1621 34.7327 34.138C34.8174 34.1128 34.8756 34.0822 34.9091 34.0461C34.9425 34.01 34.9693 33.9642 34.9894 33.9105C35.0072 33.8624 35.0193 33.7944 35.026 33.7091C35.0327 33.6237 35.0338 33.4882 35.0282 33.3033L34.9067 31.4374C34.8955 31.2131 34.8732 31.0119 34.8398 30.8335C34.8074 30.6563 34.7594 30.4963 34.6992 30.3573C34.639 30.2184 34.5645 30.1004 34.4731 30.003C34.3828 29.9045 34.279 29.8224 34.1586 29.7545C34.492 29.6615 34.803 29.5389 35.093 29.3879C35.3829 29.2369 35.6448 29.0586 35.8801 28.8528C36.1154 28.6482 36.3218 28.4162 36.5013 28.1547C36.6798 27.8943 36.828 27.6053 36.9462 27.2879C37.0856 26.9115 37.1514 26.5791 37.1459 26.288C37.1381 25.998 37.0657 25.7473 36.9285 25.535C36.7914 25.3227 36.5916 25.1509 36.3284 25.0196C36.0675 24.8872 35.753 24.7943 35.3839 24.7407C35.2557 24.7265 35.112 24.7143 34.9503 24.7045C34.7897 24.6946 34.5833 24.6892 34.3301 24.6892H31.8313ZM55.3941 24.6892C55.2302 24.6892 55.074 24.7364 54.9268 24.8316C54.7796 24.9279 54.6658 25.082 54.5866 25.2965L51.5247 33.5515C51.4455 33.7671 51.4432 33.9215 51.5191 34.0167C51.5971 34.1119 51.7175 34.1601 51.8815 34.1601H56.7287C56.7744 34.1601 56.8202 34.1457 56.867 34.1183C56.915 34.092 56.9608 34.0505 57.0065 33.9914C57.0555 33.9324 57.1023 33.8558 57.1491 33.7606C57.1971 33.6654 57.2471 33.5471 57.2996 33.406H57.2998C57.3522 33.2648 57.3899 33.1455 57.4133 33.0514C57.4345 32.9562 57.4459 32.8786 57.4414 32.8195C57.4392 32.7615 57.4235 32.7189 57.3956 32.6916C57.3689 32.6664 57.3321 32.6522 57.2875 32.6522H53.8129L54.8032 29.9809H57.719C57.7647 29.9809 57.8092 29.9691 57.856 29.9439C57.9028 29.9198 57.9487 29.8792 57.9944 29.8234C58.0401 29.7675 58.0859 29.6934 58.1328 29.6004C58.1796 29.5073 58.2297 29.3901 58.2821 29.2489C58.3323 29.1121 58.369 28.9961 58.3913 28.9009C58.4147 28.8068 58.4247 28.7314 58.4202 28.6745C58.4169 28.6187 58.4004 28.576 58.3737 28.5497C58.3458 28.5235 58.3099 28.5093 58.2653 28.5093H55.3494L56.207 26.1971H59.6514C59.696 26.1971 59.7417 26.184 59.7874 26.1567C59.8309 26.1293 59.8776 26.0876 59.9234 26.0285C59.9702 25.9705 60.0182 25.8928 60.0639 25.7976C60.1129 25.7035 60.1622 25.5875 60.2135 25.4496C60.2681 25.3041 60.3049 25.1837 60.3283 25.0874C60.3517 24.9933 60.3616 24.9147 60.3594 24.8534C60.3571 24.7932 60.3427 24.7506 60.3171 24.7265C60.2914 24.7024 60.2568 24.6892 60.2111 24.6892H55.3941ZM14.4837 24.6898C14.3198 24.6898 14.1636 24.7369 14.0164 24.8321C13.8692 24.9273 13.7565 25.0814 13.6762 25.297L10.6143 33.552C10.5351 33.7665 10.5328 33.9209 10.6097 34.0161C10.6867 34.1114 10.8071 34.1596 10.971 34.1596H13.537C13.924 34.1596 14.2852 34.1365 14.6175 34.0894C14.9509 34.0435 15.2741 33.9712 15.5886 33.8738C15.903 33.7764 16.2042 33.6518 16.4919 33.5008C16.7796 33.3498 17.0439 33.1693 17.2892 32.9603C17.5334 32.7502 17.753 32.507 17.9493 32.2345C18.1455 31.961 18.3062 31.657 18.4311 31.32C18.5504 30.9983 18.6084 30.707 18.605 30.4488C18.6006 30.1905 18.5491 29.9653 18.4487 29.7727C18.3484 29.5801 18.2056 29.4225 18.0194 29.2999C17.8332 29.1784 17.6137 29.092 17.3583 29.0438C17.6003 28.9661 17.8289 28.8632 18.043 28.7362C18.257 28.6093 18.4511 28.4628 18.6272 28.2976C18.8023 28.1313 18.9572 27.9474 19.0922 27.745C19.2271 27.5425 19.3363 27.3271 19.4222 27.0973C19.5749 26.688 19.6319 26.3311 19.5951 26.029C19.5583 25.7259 19.4355 25.4753 19.2281 25.2784C19.0207 25.0803 18.7297 24.9327 18.355 24.8353C17.9815 24.7379 17.4988 24.6898 16.9078 24.6898H14.4837ZM15.292 26.1309H16.2834C16.5867 26.1309 16.8187 26.1582 16.9804 26.2118C17.1421 26.2655 17.2635 26.342 17.346 26.4427C17.4285 26.5423 17.4709 26.6681 17.4742 26.8191C17.4775 26.9712 17.4451 27.1409 17.3749 27.3313C17.3113 27.5031 17.2233 27.664 17.1118 27.8183C16.9992 27.9714 16.8666 28.106 16.7117 28.2209C16.5578 28.3358 16.3837 28.4255 16.1908 28.4912C15.9968 28.5568 15.7592 28.5907 15.4748 28.5907H14.3799L15.292 26.1309ZM32.6653 26.1598H33.5451C33.7693 26.1598 33.9423 26.1687 34.0638 26.183C34.1854 26.1972 34.2901 26.2167 34.3805 26.2397C34.676 26.3294 34.8565 26.4793 34.9211 26.6949C34.9858 26.9093 34.9592 27.1731 34.8443 27.4849C34.7674 27.6896 34.6649 27.8758 34.5333 28.041C34.4028 28.2073 34.2443 28.3506 34.0614 28.4699C33.8774 28.5892 33.6701 28.681 33.4359 28.7478C33.2029 28.8134 32.9476 28.8463 32.6688 28.8463H31.6697L32.6653 26.1598ZM13.8579 29.9959H15.0212C15.3791 29.9959 15.6577 30.0275 15.8584 30.091C16.058 30.1545 16.2098 30.2442 16.3112 30.3613C16.4105 30.4784 16.4661 30.6239 16.4761 30.7968C16.4873 30.9697 16.4518 31.1657 16.3704 31.3856C16.2923 31.5968 16.1853 31.7828 16.0481 31.9459C15.9088 32.1089 15.7514 32.2457 15.5741 32.3551C15.3968 32.4656 15.2039 32.5477 14.9965 32.6046C14.7891 32.6615 14.5494 32.6876 14.2774 32.6876H12.8601L13.8579 29.9959Z" fill="white"/>
</g>
<defs>
<clipPath id="clip0_5402_6626">
<rect width="112" height="35" fill="white"/>
</clipPath>
</defs>
</svg>
