<svg width="87" height="29" viewBox="0 0 87 29" fill="none" xmlns="http://www.w3.org/2000/svg">
<path d="M56.6726 0C50.4949 0 44.9739 3.20443 44.9739 9.12352C44.9739 15.9123 54.7652 16.3812 54.7652 19.7922C54.7652 21.2284 53.1208 22.5138 50.3111 22.5138C46.3247 22.5138 43.3452 20.7177 43.3452 20.7177L42.0701 26.6917C42.0701 26.6917 45.5025 28.2089 50.0594 28.2089C56.8137 28.2089 62.1292 24.8476 62.1292 18.8266C62.1292 11.6526 52.2969 11.1976 52.2969 8.03243C52.2969 6.90735 53.6469 5.67508 56.4479 5.67508C59.6086 5.67508 62.1867 6.98142 62.1867 6.98142L63.4348 1.21223C63.4348 1.21223 60.6294 0 56.6726 0ZM0.149805 0.43574L0 1.30635C0 1.30635 2.59895 1.78218 4.9401 2.73209C7.95449 3.82057 8.16875 4.455 8.67652 6.42281L14.208 27.7592H21.6234L33.0469 0.43574H25.649L18.3085 19.0131L15.3133 3.26543C15.0389 1.46321 13.6471 0.434868 11.9444 0.434868L0.149805 0.43574ZM36.0221 0.43574L30.2189 27.7592H37.2737L43.056 0.43574H36.0221ZM75.3687 0.43574C73.6677 0.43574 72.7663 1.34731 72.1052 2.9395L61.7695 27.7592H69.1674L70.5984 23.6223H79.6111L80.4812 27.7592H87.0091L81.3147 0.43574H75.3687ZM76.3311 7.81804L78.5242 18.071H72.6495L76.3311 7.81804Z" fill="white"/>
</svg>
