<svg width="73" height="34" viewBox="0 0 73 34" fill="none" xmlns="http://www.w3.org/2000/svg">
<path d="M22.5277 0H0V3.90977H22.5277V0Z" fill="white"/>
<path d="M58.9405 14.3114H62.718V33.475H67.0677V14.3114H68.9553C69.9518 14.3114 70.8477 13.7323 71.2936 12.8007L72.438 10.4024H67.0685V4.18999H62.7188V10.4016H58.9413L58.9405 14.3114Z" fill="white"/>
<path d="M54.9041 0.000285142H50.5544V33.4758H54.9041V0.000285142Z" fill="white"/>
<path d="M22.4463 10.4043H17.7098L11.2584 24.2496L4.8165 10.4043H0.0752166L11.2584 33.8725L22.4463 10.4043Z" fill="white"/>
<path d="M34.5228 10.1666C27.9515 10.1666 22.6061 15.4459 22.6061 21.9342C22.6061 28.4226 27.9523 33.7018 34.5228 33.7018C41.0933 33.7018 46.4404 28.4226 46.4404 21.9342C46.4404 15.4459 41.0941 10.1666 34.5228 10.1666ZM34.5228 29.5105C30.317 29.5105 26.895 26.1112 26.895 21.9334C26.895 17.7557 30.317 14.3564 34.5228 14.3564C38.7287 14.3564 42.1506 17.7557 42.1506 21.9334C42.1506 26.112 38.7287 29.5105 34.5228 29.5105Z" fill="white"/>
</svg>
